<svg width="407" height="431" viewBox="0 0 407 431" fill="none" xmlns="http://www.w3.org/2000/svg">
<path d="M311.478 296.283L335.781 330.455C353.853 317.741 369.229 301.61 381.033 282.984C392.837 264.359 400.838 243.603 404.577 221.902C408.317 200.201 407.722 177.98 402.828 156.508C397.934 135.036 388.836 114.732 376.053 96.7572C363.27 78.7822 347.053 63.4875 328.328 51.7464C309.602 40.0054 288.735 32.0478 266.918 28.3282C245.101 24.6086 222.76 25.1997 201.173 30.0677C179.585 34.9358 159.173 43.9855 141.102 56.7001L165.532 90.9986C189.48 74.1386 218.586 66.1035 247.845 68.2746C277.103 70.4458 304.688 82.6876 325.856 102.896C295.691 115.283 266.8 130.541 239.586 148.458C183.51 184.438 135.794 231.9 99.6208 287.677C74.775 251.479 65.2263 207.018 73.0335 163.881C80.8407 120.744 105.378 82.3872 141.356 57.0798L100.766 0C49.1169 36.3525 14.1016 91.6243 3.42315 153.656C-7.25528 215.688 7.27787 279.398 43.8254 330.772C80.3729 382.145 135.941 416.974 198.305 427.595C260.67 438.217 324.722 423.761 376.371 387.408L335.781 330.329C305.188 351.823 268.253 362.538 230.84 360.772C193.427 359.007 157.678 344.862 129.268 320.583C162.63 265.876 207.891 219.299 261.727 184.275C289.891 165.485 320.115 149.944 351.814 137.953C364.974 164.832 368.143 195.476 360.76 224.457C353.377 253.437 335.919 278.882 311.478 296.283Z" fill="#F6F7F9"/>
</svg>
