<svg width="12" height="22" viewBox="0 0 12 22" fill="none" xmlns="http://www.w3.org/2000/svg">
<path d="M2.33681 11.0011L11.6061 20.2703C11.7695 20.4337 11.8553 20.6437 11.8633 20.9001C11.8713 21.1565 11.7935 21.3664 11.6301 21.5299C11.4666 21.6934 11.2567 21.7751 11.0003 21.7751C10.7439 21.7751 10.5339 21.6934 10.3705 21.5299L1.09884 12.2342C0.917715 12.0531 0.791111 11.8592 0.719027 11.6525C0.646902 11.4458 0.61084 11.2286 0.61084 11.0011C0.61084 10.7735 0.646902 10.5563 0.719027 10.3496C0.791132 10.1429 0.917736 9.94898 1.09884 9.76787L10.3705 0.496244C10.5339 0.332785 10.7399 0.247045 10.9882 0.239024C11.2367 0.231024 11.4426 0.308755 11.6061 0.472213C11.7695 0.635671 11.8512 0.845609 11.8512 1.10203C11.8512 1.35844 11.7695 1.56838 11.6061 1.73184L2.33681 11.0011Z" fill="white"/>
</svg>
