<svg width="12" height="22" viewBox="0 0 12 22" fill="none" xmlns="http://www.w3.org/2000/svg">
<path d="M9.66319 11.0011L0.393939 20.2703C0.23048 20.4337 0.144742 20.6437 0.136721 20.9001C0.128721 21.1565 0.20645 21.3664 0.369908 21.5299C0.533367 21.6934 0.743304 21.7751 0.999721 21.7751C1.25614 21.7751 1.46607 21.6934 1.62953 21.5299L10.9012 12.2342C11.0823 12.0531 11.2089 11.8592 11.281 11.6525C11.3531 11.4458 11.3892 11.2286 11.3892 11.0011C11.3892 10.7735 11.3531 10.5563 11.281 10.3496C11.2089 10.1429 11.0823 9.94898 10.9012 9.76787L1.62953 0.496244C1.46607 0.332785 1.26015 0.247045 1.01175 0.239024C0.763335 0.231024 0.557397 0.308755 0.393939 0.472213C0.23048 0.635671 0.148752 0.845609 0.148752 1.10203C0.148752 1.35844 0.23048 1.56838 0.393939 1.73184L9.66319 11.0011Z" fill="white"/>
</svg>
