<svg width="30" height="30" viewBox="0 0 30 30" fill="none" xmlns="http://www.w3.org/2000/svg">
<g id="ic-slider-left">
<mask id="mask0_58_550" style="mask-type:alpha" maskUnits="userSpaceOnUse" x="0" y="0" width="30" height="30">
<rect id="Bounding box" width="30" height="30" fill="#D9D9D9"/>
</mask>
<g mask="url(#mask0_58_550)">
<path id="arrow_back_ios" d="M3.33681 15.0011L12.6061 24.2703C12.7695 24.4337 12.8553 24.6437 12.8633 24.9001C12.8713 25.1565 12.7935 25.3664 12.6301 25.5299C12.4666 25.6934 12.2567 25.7751 12.0003 25.7751C11.7439 25.7751 11.5339 25.6934 11.3705 25.5299L2.09884 16.2342C1.91771 16.0531 1.79111 15.8592 1.71903 15.6525C1.6469 15.4458 1.61084 15.2286 1.61084 15.0011C1.61084 14.7735 1.6469 14.5563 1.71903 14.3496C1.79113 14.1429 1.91774 13.949 2.09884 13.7679L11.3705 4.49624C11.5339 4.33279 11.7399 4.24705 11.9882 4.23902C12.2367 4.23102 12.4426 4.30875 12.6061 4.47221C12.7695 4.63567 12.8512 4.84561 12.8512 5.10203C12.8512 5.35844 12.7695 5.56838 12.6061 5.73184L3.33681 15.0011Z" fill="white"/>
</g>
</g>
</svg>
