<svg width="30" height="30" viewBox="0 0 30 30" fill="none" xmlns="http://www.w3.org/2000/svg">
<g id="ic-slider-right">
<mask id="mask0_58_553" style="mask-type:alpha" maskUnits="userSpaceOnUse" x="0" y="0" width="30" height="30">
<rect id="Bounding box" width="30" height="30" transform="matrix(-1 0 0 1 30 0)" fill="#D9D9D9"/>
</mask>
<g mask="url(#mask0_58_553)">
<path id="arrow_back_ios" d="M26.6632 15.0011L17.3939 24.2703C17.2305 24.4337 17.1447 24.6437 17.1367 24.9001C17.1287 25.1565 17.2065 25.3664 17.3699 25.5299C17.5334 25.6934 17.7433 25.7751 17.9997 25.7751C18.2561 25.7751 18.4661 25.6934 18.6295 25.5299L27.9012 16.2342C28.0823 16.0531 28.2089 15.8592 28.281 15.6525C28.3531 15.4458 28.3892 15.2286 28.3892 15.0011C28.3892 14.7735 28.3531 14.5563 28.281 14.3496C28.2089 14.1429 28.0823 13.949 27.9012 13.7679L18.6295 4.49624C18.4661 4.33279 18.2601 4.24705 18.0118 4.23902C17.7633 4.23102 17.5574 4.30875 17.3939 4.47221C17.2305 4.63567 17.1488 4.84561 17.1488 5.10203C17.1488 5.35844 17.2305 5.56838 17.3939 5.73184L26.6632 15.0011Z" fill="white"/>
</g>
</g>
</svg>
