<svg width="110" height="110" viewBox="0 0 110 110" fill="none" xmlns="http://www.w3.org/2000/svg">
<g id="format_quote">
<mask id="mask0_58_616" style="mask-type:alpha" maskUnits="userSpaceOnUse" x="0" y="0" width="110" height="110">
<rect id="Bounding box" width="110" height="110" transform="matrix(1 0 0 -1 0 110)" fill="#D9D9D9"/>
</mask>
<g mask="url(#mask0_58_616)">
<path id="format_quote_2" d="M79.8645 32.0833C77.9548 32.0833 76.5225 32.8663 75.5676 34.4323C74.6128 35.9983 74.5555 37.6215 75.3958 39.3021L80.8958 50.4167H66.4583C64.5485 50.4167 62.9253 51.0851 61.5885 52.4219C60.2517 53.7587 59.5833 55.3819 59.5833 57.2917V75.625C59.5833 77.5347 60.2517 79.158 61.5885 80.4948C62.9253 81.8316 64.5485 82.5 66.4583 82.5H84.7916C86.7013 82.5 88.3246 81.8316 89.6614 80.4948C90.9982 79.158 91.6666 77.5347 91.6666 75.625V51.1042C91.6666 50.5694 91.6093 50.0347 91.4947 49.5C91.3801 48.9653 91.2083 48.4688 90.9791 48.0104L84.3333 34.8333C83.9513 33.9931 83.3593 33.3247 82.5572 32.8281C81.7551 32.3316 80.8576 32.0833 79.8645 32.0833ZM38.6145 32.0833C36.7048 32.0833 35.2725 32.8663 34.3176 34.4323C33.3628 35.9983 33.3055 37.6215 34.1458 39.3021L39.6458 50.4167H25.2083C23.2985 50.4167 21.6753 51.0851 20.3385 52.4219C19.0017 53.7587 18.3333 55.3819 18.3333 57.2917V75.625C18.3333 77.5347 19.0017 79.158 20.3385 80.4948C21.6753 81.8316 23.2985 82.5 25.2083 82.5H43.5416C45.4513 82.5 47.0746 81.8316 48.4114 80.4948C49.7482 79.158 50.4166 77.5347 50.4166 75.625V51.1042C50.4166 50.5694 50.3593 50.0347 50.2447 49.5C50.1301 48.9653 49.9583 48.4688 49.7291 48.0104L43.0833 34.8333C42.7013 33.9931 42.1093 33.3247 41.3072 32.8281C40.5051 32.3316 39.6076 32.0833 38.6145 32.0833Z" fill="#44A2F8"/>
</g>
</g>
</svg>
