<svg width="60" height="60" viewBox="0 0 60 60" fill="none" xmlns="http://www.w3.org/2000/svg">
<g id="Frame">
<g id="Group">
<path id="Vector" d="M27.785 8.12506C22.3537 5.99693 8.09437 5.30193 6.16687 5.21631L5.24312 5.44943C5.11217 5.57342 5.01932 5.7322 4.97548 5.90712C4.93164 6.08204 4.93863 6.26584 4.99562 6.43693V46.3701L4.99625 46.7013L5.20187 46.9588C5.53437 47.3732 5.54312 47.3851 17.165 48.492L16.7375 52.1332C16.7087 52.3801 16.7469 52.6302 16.8482 52.8572C16.9495 53.0842 17.1101 53.2798 17.3131 53.4232C18.7569 54.4345 20.3569 54.8513 21.8125 54.937C24.5706 55.0982 25.85 52.9713 25.85 52.9713L30.6894 14.1351C30.9231 13.2676 30.9181 12.2857 30.6512 11.3451C30.225 9.84506 29.18 8.67194 27.785 8.12506ZM24.0519 52.2201C22.9569 53.4013 20.6294 53.3307 18.6356 52.0513L22.7694 16.8444C22.7761 16.774 22.7993 16.7062 22.8371 16.6464C22.8749 16.5865 22.9262 16.5364 22.9869 16.5001C23.0554 16.4598 23.132 16.4353 23.2112 16.4285C23.2903 16.4217 23.37 16.4327 23.4444 16.4607C25.0531 17.0557 27.0119 17.2057 28.485 16.6401L24.0519 52.2201ZM28.5269 14.3938C27.9081 15.2207 25.8787 15.3613 24.095 14.7019C23.7549 14.5733 23.3898 14.5243 23.0278 14.5589C22.6657 14.5935 22.3165 14.7106 22.0069 14.9013C21.7043 15.0859 21.4479 15.3372 21.2572 15.6359C21.0665 15.9346 20.9464 16.2729 20.9062 16.6251L17.3837 46.6282C13.8837 46.2945 8.75874 45.7876 6.87187 45.5645L6.86437 7.13131C10.3781 7.31318 22.4706 8.05818 27.1 9.87256C28.2562 10.3257 28.6412 11.3276 28.845 11.8588C29.2431 12.8926 28.6637 14.2119 28.5269 14.3938ZM46.1806 55.0001H53.8631C54.1783 54.9999 54.4806 54.8746 54.7035 54.6517C54.9264 54.4288 55.0517 54.1266 55.0519 53.8113V13.0332C55.0519 12.3769 54.5187 11.8444 53.8631 11.8444H46.1806C45.5244 11.8444 44.9919 12.3769 44.9919 13.0332V53.8113C44.9922 54.1265 45.1175 54.4287 45.3404 54.6515C45.5633 54.8744 45.8654 54.9998 46.1806 55.0001ZM46.8687 13.7207H53.1756V16.4532H51.25C51.0012 16.4532 50.7626 16.552 50.5866 16.728C50.4107 16.9039 50.3119 17.1425 50.3119 17.3913C50.3119 17.6401 50.4107 17.8787 50.5866 18.0547C50.7626 18.2306 51.0012 18.3294 51.25 18.3294H53.1756V21.7301H51.25C51.0012 21.7301 50.7626 21.8289 50.5866 22.0048C50.4107 22.1808 50.3119 22.4194 50.3119 22.6682C50.3119 22.917 50.4107 23.1556 50.5866 23.3315C50.7626 23.5075 51.0012 23.6063 51.25 23.6063H53.1756V27.0082H51.25C51.0012 27.0082 50.7626 27.107 50.5866 27.283C50.4107 27.4589 50.3119 27.6975 50.3119 27.9463C50.3119 28.1951 50.4107 28.4337 50.5866 28.6097C50.7626 28.7856 51.0012 28.8844 51.25 28.8844H53.1756V32.2851H51.25C51.0012 32.2851 50.7626 32.3839 50.5866 32.5598C50.4107 32.7358 50.3119 32.9744 50.3119 33.2232C50.3119 33.472 50.4107 33.7106 50.5866 33.8866C50.7626 34.0625 51.0012 34.1613 51.25 34.1613H53.1756V37.5632H51.25C51.0012 37.5632 50.7626 37.662 50.5866 37.838C50.4107 38.0139 50.3119 38.2525 50.3119 38.5013C50.3119 38.7501 50.4107 38.9887 50.5866 39.1647C50.7626 39.3406 51.0012 39.4394 51.25 39.4394H53.1756V42.8413H51.25C51.1268 42.8413 51.0048 42.8656 50.891 42.9127C50.7772 42.9599 50.6737 43.029 50.5866 43.1161C50.4995 43.2032 50.4304 43.3066 50.3833 43.4204C50.3361 43.5343 50.3119 43.6563 50.3119 43.7794C50.3119 43.9026 50.3361 44.0246 50.3833 44.1385C50.4304 44.2523 50.4995 44.3557 50.5866 44.4428C50.6737 44.5299 50.7772 44.599 50.891 44.6462C51.0048 44.6933 51.1268 44.7176 51.25 44.7176H53.1756V48.1182H51.25C51.0012 48.1182 50.7626 48.217 50.5866 48.393C50.4107 48.5689 50.3119 48.8075 50.3119 49.0563C50.3119 49.3051 50.4107 49.5438 50.5866 49.7197C50.7626 49.8956 51.0012 49.9945 51.25 49.9945H53.1756V53.122H46.8687V13.7207ZM38.8806 28.9782C38.4631 28.1476 37.1119 28.1426 36.6912 28.9807C36.6912 28.9807 33.9844 34.7619 33.9844 34.9907V53.687C33.9844 54.4113 34.5737 55.0001 35.2981 55.0001H40.2756C40.6238 54.9998 40.9576 54.8613 41.2038 54.6151C41.45 54.3689 41.5884 54.0351 41.5887 53.687V34.9907C41.5881 34.7619 38.8806 28.9782 38.8806 28.9782ZM35.8606 35.5538H39.7125V49.6188H35.8606V35.5538ZM37.7862 30.9851L39.1325 33.6776H36.4406L37.7862 30.9851ZM39.7119 53.1238H35.86V51.4957H39.7119V53.1238Z" fill="#1140A6"/>
</g>
</g>
</svg>
