<svg width="368" height="390" viewBox="0 0 368 390" fill="none" xmlns="http://www.w3.org/2000/svg">
<path d="M281.631 268.099L303.606 299.02C319.945 287.515 333.849 272.919 344.522 256.065C355.194 239.211 362.428 220.43 365.809 200.793C369.191 181.157 368.653 161.05 364.228 141.62C359.803 122.19 351.577 103.818 340.019 87.5529C328.461 71.2878 313.797 57.4481 296.866 46.8239C279.935 36.1997 261.068 28.9992 241.341 25.6334C221.614 22.2676 201.415 22.8025 181.896 27.2074C162.377 31.6124 143.921 39.8013 127.581 51.3064L149.67 82.3421C171.324 67.086 197.64 59.8152 224.095 61.7798C250.551 63.7445 275.492 74.8217 294.632 93.1073C267.357 104.316 241.234 118.123 216.629 134.336C165.926 166.893 122.781 209.84 90.0748 260.311C67.6098 227.556 58.9761 187.325 66.0352 148.291C73.0943 109.258 95.2807 74.5499 127.811 51.6499L91.1103 0C44.4103 32.8944 12.7503 82.9083 3.09514 139.039C-6.56006 195.17 6.58048 252.82 39.6259 299.306C72.6713 345.793 122.915 377.308 179.303 386.919C235.692 396.53 293.606 383.45 340.306 350.555L303.606 298.905C275.944 318.355 242.549 328.05 208.72 326.453C174.892 324.855 142.569 312.056 116.881 290.087C147.046 240.584 187.971 198.438 236.647 166.746C262.113 149.742 289.44 135.68 318.102 124.83C330.001 149.152 332.867 176.881 326.191 203.105C319.516 229.328 303.73 252.353 281.631 268.099Z" fill="#F6F7F9"/>
</svg>
