<svg width="60" height="60" viewBox="0 0 60 60" fill="none" xmlns="http://www.w3.org/2000/svg">
<g id="avg_pace">
<mask id="mask0_58_590" style="mask-type:alpha" maskUnits="userSpaceOnUse" x="0" y="0" width="60" height="60">
<rect id="Bounding box" width="60" height="60" fill="#D9D9D9"/>
</mask>
<g mask="url(#mask0_58_590)">
<path id="avg_pace_2" d="M37.3952 12.5481C36.9149 12.5481 36.4997 12.3703 36.1498 12.0146C35.7999 11.659 35.625 11.241 35.625 10.7606C35.625 10.2803 35.8028 9.86511 36.1584 9.51519C36.514 9.16532 36.932 8.99038 37.4124 8.99038C37.8928 8.99038 38.308 9.16819 38.6579 9.52382C39.0077 9.8794 39.1827 10.2974 39.1827 10.7778C39.1827 11.2582 39.0049 11.6733 38.6492 12.0233C38.2937 12.3731 37.8757 12.5481 37.3952 12.5481ZM37.2511 51.0096C36.7706 51.0096 36.3555 50.8318 36.0056 50.4762C35.6557 50.1206 35.4808 49.7026 35.4808 49.2222C35.4808 48.7418 35.6586 48.3267 36.0142 47.9768C36.3698 47.6269 36.7878 47.4519 37.2682 47.4519C37.7486 47.4519 38.1637 47.6298 38.5136 47.9854C38.8635 48.341 39.0384 48.759 39.0384 49.2394C39.0384 49.7198 38.8606 50.1349 38.5051 50.4848C38.1494 50.8347 37.7314 51.0096 37.2511 51.0096ZM47.2511 20.7211C46.7706 20.7211 46.3555 20.5433 46.0056 20.1878C45.6557 19.8321 45.4807 19.4141 45.4807 18.9338C45.4807 18.4533 45.6586 18.0382 46.0142 17.6883C46.3698 17.3384 46.7878 17.1634 47.2682 17.1634C47.7486 17.1634 48.1637 17.3413 48.5136 17.6969C48.8635 18.0525 49.0384 18.4705 49.0384 18.9509C49.0384 19.4313 48.8606 19.8464 48.5051 20.1963C48.1494 20.5462 47.7314 20.7211 47.2511 20.7211ZM47.1068 42.9808C46.6264 42.9808 46.2113 42.803 45.8614 42.4474C45.5115 42.0918 45.3366 41.6738 45.3366 41.1934C45.3366 40.713 45.5144 40.2978 45.8699 39.9479C46.2256 39.598 46.6436 39.4231 47.1239 39.4231C47.6044 39.4231 48.0195 39.6009 48.3694 39.9565C48.7193 40.3121 48.8942 40.7301 48.8942 41.2105C48.8942 41.6909 48.7164 42.106 48.3608 42.4559C48.0052 42.8058 47.5872 42.9808 47.1068 42.9808ZM50.5202 31.7789C50.0399 31.7789 49.6247 31.6011 49.2749 31.2454C48.925 30.8898 48.75 30.4718 48.75 29.9914C48.75 29.511 48.9278 29.0959 49.2834 28.746C49.639 28.3961 50.057 28.2211 50.5374 28.2211C51.0178 28.2211 51.433 28.3989 51.7829 28.7546C52.1327 29.1102 52.3077 29.5282 52.3077 30.0086C52.3077 30.489 52.1299 30.9041 51.7743 31.254C51.4187 31.6039 51.0007 31.7789 50.5202 31.7789ZM7.5 29.9994C7.5 23.9752 9.55102 18.8061 13.6531 14.492C17.7551 10.1779 22.7847 7.85361 28.742 7.51919C29.0796 7.5064 29.3736 7.60255 29.6242 7.80763C29.8747 8.01271 30 8.26732 30 8.57144C30 8.8614 29.8888 9.10467 29.6665 9.30126C29.4442 9.49784 29.1819 9.60896 28.8798 9.63463C23.4791 9.92092 18.9183 12.0248 15.1971 15.9463C11.476 19.8677 9.61537 24.5532 9.61537 30.0029C9.61537 35.4978 11.4706 40.1937 15.1811 44.0906C18.8916 47.9875 23.4578 50.0791 28.8798 50.3654C29.1819 50.3915 29.4442 50.5074 29.6665 50.7131C29.8888 50.9189 30 51.1625 30 51.444C30 51.7447 29.8747 51.9959 29.6242 52.1975C29.3736 52.3992 29.0796 52.4936 28.742 52.4808C22.7815 52.1464 17.751 49.8219 13.6506 45.5074C9.55021 41.1929 7.5 36.0236 7.5 29.9994ZM29.9963 33.5577C28.9913 33.5577 28.1477 33.2158 27.4656 32.5319C26.7834 31.848 26.4423 31.004 26.4423 30C26.4423 29.6908 26.4704 29.3967 26.5264 29.1175C26.5825 28.8383 26.6843 28.5739 26.8318 28.3243L22.7468 24.2051C22.547 24.0053 22.4551 23.7623 22.4711 23.4759C22.4872 23.1897 22.5951 22.9466 22.7949 22.7468C22.9947 22.547 23.2297 22.4487 23.5 22.4519C23.7703 22.4552 24.0053 22.5534 24.2051 22.7468L28.3477 26.8318C28.5742 26.7195 29.125 26.5897 30 26.4423C31.004 26.4423 31.848 26.7846 32.5319 27.4693C33.2157 28.1539 33.5577 28.9987 33.5577 30.0037C33.5577 31.0087 33.2154 31.8523 32.5308 32.5344C31.8461 33.2166 31.0013 33.5577 29.9963 33.5577Z" fill="#1140A6"/>
</g>
</g>
</svg>
