<svg width="60" height="60" viewBox="0 0 60 60" fill="none" xmlns="http://www.w3.org/2000/svg">
<g id="Frame" clip-path="url(#clip0_58_597)">
<g id="Vector">
<mask id="path-1-outside-1_58_597" maskUnits="userSpaceOnUse" x="0" y="9" width="61" height="41" fill="black">
<rect fill="white" y="9" width="61" height="41"/>
<path fill-rule="evenodd" clip-rule="evenodd" d="M41.7522 29.5907C41.7522 27.9002 43.1137 26.5297 44.7934 26.5297C45.5985 26.5297 46.3529 26.8472 46.9131 27.3956L47.1695 27.3559L48.711 25.6694C48.9328 25.4267 49.3058 25.4045 49.5545 25.6191L49.8314 25.2189C49.9135 25.0995 50.0353 25.0133 50.1747 24.9759L51.2743 24.6808C51.4902 24.6228 51.7204 24.6887 51.8737 24.8525L53.0683 26.1287C53.3036 26.38 53.2859 26.7773 53.0293 27.0065L50.5925 29.1826L50.7414 29.2725L50.9158 29.214C51.0204 29.1789 51.1325 29.1731 51.2401 29.1972L51.8998 29.3447C52.1387 29.3982 52.3225 29.5905 52.3663 29.8329L52.4335 30.2047L53.1595 30.3L53.1621 30.2906C53.2367 30.0278 53.4754 29.8466 53.747 29.8466H53.9136L54.3186 29.3881C54.5605 29.1141 54.9858 29.1141 55.2278 29.3881L55.8142 30.0521C55.9159 30.1673 55.9694 30.3151 55.9678 30.4654L56.3252 30.5168C56.5805 30.5535 56.7851 30.7483 56.8356 31.0028L56.8552 31.1011L57.3286 30.974C57.7147 30.8703 58.0936 31.1633 58.0936 31.5655V31.7043L59.4836 31.9196C59.9931 31.9984 60.1802 32.6394 59.7941 32.9832L57.8883 34.6801C57.7214 34.8288 57.487 34.8736 57.2775 34.7969L56.8483 34.6398L56.0925 35.4513L55.936 35.801C55.7926 36.1216 55.4108 36.255 55.1008 36.0928L53.73 35.3753L54.2285 36.2875C54.4514 36.6955 54.1581 37.1947 53.6955 37.1947H53.2557C53.0752 37.1947 52.904 37.114 52.7884 36.9744L51.9263 35.9331L51.6284 35.9997C51.3242 36.0677 51.018 35.8933 50.9195 35.5956L50.7578 35.1075L50.2435 34.7048C49.9183 34.4503 49.9333 33.9508 50.2731 33.7165L50.5191 33.5469L50.0536 33.1805C49.9953 33.2688 49.9148 33.3411 49.819 33.3893L48.8365 33.8838C48.6412 33.982 48.4087 33.9675 48.2271 33.8456L47.9207 33.6401L47.8624 33.7576C47.8392 33.8041 47.8103 33.8475 47.7763 33.8866L47.9989 34.2973C48.0896 34.4646 48.0977 34.6649 48.0208 34.8391L47.7276 35.5031C47.6299 35.7242 47.4121 35.8667 47.1717 35.8667H46.7341L46.5989 36.6832C46.5603 36.9163 46.3918 37.1062 46.166 37.1712L45.4879 37.3662L45.2733 38.3385C45.202 38.6611 44.8891 38.8686 44.5664 38.8072L42.066 38.331L41.686 38.537L41.761 38.9904C41.7746 39.0726 41.7713 39.1555 41.7524 39.2343L42.0131 39.3218C42.2309 39.3948 42.3865 39.5837 42.4216 39.8068H43.0669C43.1985 39.8068 43.3265 39.8498 43.4318 39.9293L44.0182 40.3719C44.2383 40.538 44.3202 40.8321 44.218 41.0891L44.0714 41.458C44.0408 41.5349 43.995 41.6049 43.9368 41.6635L43.5952 42.0074L43.3056 42.8404L44.0616 43.6013C44.2336 43.7745 44.2866 44.0342 44.1962 44.2616L43.7564 45.3683C43.664 45.6007 43.4404 45.7531 43.1917 45.7531H43.0339L42.8116 46.3797C42.7948 46.4269 42.7724 46.4718 42.7448 46.5134L42.2606 47.2445V48.3872C42.2606 48.8203 41.826 49.1165 41.4264 48.9556L40.6443 48.6407L40.3314 48.877C40.0823 49.0649 39.7325 49.0334 39.5207 48.8038L38.8922 48.1225L38.6492 48.2583C38.5363 48.3214 38.4065 48.3468 38.2784 48.3307L37.1055 48.1831C36.6749 48.1289 36.4375 47.6512 36.6529 47.2719L36.8441 46.935L36.7247 46.0334C36.7057 45.8905 36.7375 45.7454 36.8144 45.6238L37.0443 45.2602L37.0133 45.2334L34.4832 44.2775H33.5674C33.4382 44.2775 33.3124 44.2361 33.2081 44.1593L29.2637 41.2526H28.8762C28.7454 41.2526 28.6181 41.2102 28.5132 41.1316L22.7958 36.8524C22.6695 36.758 22.5846 36.618 22.5587 36.4618L22.2954 34.8714L21.5389 34.0466C21.4672 33.9684 21.417 33.8727 21.3932 33.769L20.9897 32.009L20.3257 31.2849L20.1891 31.2391C20.1117 31.4023 19.9654 31.5245 19.7878 31.5692L19.2014 31.7168C19.0517 31.7544 18.8933 31.7334 18.7585 31.658L18.2365 31.3662H16.5616C16.439 31.3662 16.3193 31.3289 16.2181 31.2592L14.8254 30.3001C14.5662 30.1216 14.4847 29.7738 14.6372 29.4975L14.8479 29.1158L14.6249 28.6668C14.5284 28.4726 14.5421 28.2435 14.6561 28.0637L14.3713 27.8552C14.1418 27.6872 14.0582 27.3816 14.17 27.1189L14.4105 26.5541L14.325 26.4967H13.0432C12.8627 26.4967 12.6915 26.416 12.5759 26.2764L11.9803 25.5571L11.4579 25.4519C11.3482 25.4299 11.2468 25.3778 11.1646 25.3015L10.4717 24.6577L9.98048 24.8151L10.203 25.2183C10.4825 25.7246 9.97186 26.3023 9.43975 26.0817L8.66696 25.7614V25.8845C8.66696 26.0207 8.62187 26.1529 8.53883 26.2604L8.02573 26.9244C7.92232 27.0582 7.76841 27.1429 7.60068 27.1582L6.21925 27.2846L5.51502 28.0441V28.643L5.80166 30.5904C5.85979 30.9854 5.53284 31.3297 5.13824 31.2892L1.5465 30.9203C1.23609 30.8884 1 30.6253 1 30.3113V13.4158C1 13.15 1.17042 12.9146 1.4218 12.8331L10.0713 10.0295C10.2373 9.97566 10.4183 9.99617 10.5683 10.0858L15.2595 12.8894L15.329 12.9378L18.994 15.8889C19.1058 15.9789 19.1824 16.1057 19.2105 16.2469L19.324 16.8184L21.924 19.6971L26.0005 19.0816C26.0535 19.0736 26.1072 19.0727 26.1604 19.0789L29.7923 19.5007L31.243 18.7706C31.5107 18.6359 31.836 18.7172 32.0099 18.9623L32.6952 19.928L33.8044 20.8351C33.8715 20.8899 33.9262 20.9586 33.9648 21.0364L34.7371 22.5911L35.0927 22.442C35.4933 22.274 35.9349 22.5703 35.9349 23.0071V25.6632C35.9349 25.9148 35.784 26.131 35.5684 26.2251V27.0297L36.8669 27.3564C37.1026 27.4157 37.2806 27.6106 37.3197 27.852L37.7162 30.3036L39.1868 29.7853C39.3373 29.7322 39.5025 29.7408 39.6468 29.8091L40.8929 30.3994C41.1061 30.5003 41.2422 30.7162 41.2422 30.9533V31.7402L42.2641 32.2096L41.9802 31.2809C41.9331 31.1267 41.9495 30.9686 42.0139 30.8346C41.8429 30.4481 41.7522 30.026 41.7522 29.5907ZM43.5969 32.4058L43.7293 32.8391C43.8497 33.2328 43.5572 33.6313 43.148 33.6313H42.5616C42.4745 33.6313 42.3883 33.6125 42.3091 33.5761L40.3814 32.6907C40.1647 32.5912 40.0257 32.3735 40.0257 32.1338V31.3418L39.354 31.0237L37.4335 31.7006C37.0764 31.8265 36.6929 31.5971 36.6321 31.2212L36.1833 28.4465L34.8126 28.1016C34.5418 28.0335 34.3519 27.7886 34.3519 27.5077V25.6632C34.3519 25.4115 34.5027 25.1953 34.7184 25.1012V23.9254L34.681 23.9411C34.3859 24.0649 34.046 23.9376 33.903 23.6498L32.9354 21.7021L31.8644 20.8262C31.8222 20.7916 31.7847 20.7515 31.753 20.7069L31.3221 20.0997L30.1744 20.6773C30.0687 20.7305 29.95 20.7515 29.8326 20.7379L26.1012 20.3045L21.7829 20.9565C21.582 20.9868 21.3793 20.9142 21.2426 20.7629L18.3106 17.5166C18.2364 17.4345 18.1858 17.3337 18.1642 17.2249L18.0611 16.7057L14.6021 13.9205L10.1831 11.2796L2.21648 13.8618V29.7584L4.4837 29.9912L4.3051 28.7778L4.29854 28.6881V27.8028C4.29854 27.6477 4.357 27.4984 4.46212 27.3851L5.48833 26.2784C5.59034 26.1684 5.72903 26.1 5.87792 26.0864L7.22759 25.9629L7.45047 25.6745V25.3681C7.45047 25.2057 7.51456 25.05 7.62862 24.9352L7.99513 24.5663C8.16876 24.3915 8.42975 24.339 8.65681 24.4331L8.78397 24.4858L8.89537 24.1442C8.95628 23.9574 9.10261 23.8114 9.28872 23.7518L10.4397 23.3829C10.6481 23.3161 10.8761 23.3671 11.0368 23.5164L11.8641 24.285L12.4294 24.3988C12.5657 24.4263 12.6885 24.4998 12.7774 24.6072L13.3281 25.2723H14.5092C14.6293 25.2723 14.7467 25.3081 14.8466 25.3751L15.5063 25.8178C15.7503 25.9815 15.8435 26.2971 15.728 26.5684L15.4793 27.1523L15.8932 27.4552C16.1776 27.6634 16.2278 28.0703 16.0027 28.3423L15.8908 28.4773L16.0794 28.857C16.1692 29.0378 16.1646 29.2515 16.0671 29.4281L15.9697 29.6045L16.7498 30.1417H18.3941C18.4975 30.1417 18.5992 30.1683 18.6895 30.2188L19.1393 30.4703L19.1519 30.4671L19.202 30.2906C19.2971 29.9555 19.6507 29.7678 19.9792 29.878L20.8588 30.1732C20.9562 30.2058 21.0438 30.2628 21.1134 30.3387L21.993 31.2978C22.0647 31.376 22.115 31.4717 22.1387 31.5754L22.5423 33.3354L23.3124 34.1752C23.3928 34.2628 23.446 34.3722 23.4655 34.4898L23.7184 36.0171L29.0775 40.0282H29.4626C29.5918 40.0282 29.7176 40.0696 29.8219 40.1464L33.7663 43.0531H34.5936C34.6666 43.0531 34.739 43.0663 34.8074 43.0921L37.5413 44.1251C37.6078 44.1502 37.6695 44.1869 37.7234 44.2334L38.2365 44.6761C38.4664 44.8743 38.5163 45.2125 38.3538 45.4696L37.9598 46.0928L38.0771 46.9782C38.0812 47.0095 38.0829 47.0408 38.0823 47.072L38.2321 47.0909L38.7181 46.8191C38.9628 46.6823 39.2687 46.7312 39.4592 46.9377L40.0395 47.5667L40.1879 47.4547C40.3577 47.3265 40.5816 47.2967 40.7787 47.3761L41.0441 47.4829V47.0592C41.0441 46.9383 41.0796 46.8201 41.1462 46.7196L41.6911 45.8969L42.0324 44.935C42.1189 44.6913 42.3482 44.5287 42.6052 44.5287H42.7799L42.9178 44.1817L42.1752 43.4342C42.01 43.2679 41.954 43.0211 42.0311 42.7991L42.4928 41.4711C42.5229 41.3843 42.5722 41.3054 42.6368 41.2404L42.8446 41.0312H41.8208C41.4849 41.0312 41.2125 40.7571 41.2125 40.419V40.3438L40.5289 40.1145C40.1 39.9706 39.9714 39.4226 40.2912 39.1008L40.5096 38.8809L40.4145 38.3063C40.3717 38.0479 40.497 37.7908 40.7261 37.6666L41.679 37.1502C41.8018 37.0836 41.9435 37.0616 42.0804 37.0877L44.2136 37.4939L44.379 36.7448C44.4228 36.5463 44.5613 36.384 44.7464 36.3094H44.6795C44.1148 36.3094 43.8549 35.6022 44.2837 35.2323L44.7968 34.7897C44.907 34.6945 45.0474 34.6423 45.1926 34.6423H46.7765L46.7871 34.6182L46.4912 34.0721C46.362 33.8336 46.4043 33.538 46.595 33.346L46.8185 33.1211L47.1408 32.4722C47.3044 32.1428 47.7178 32.0323 48.0222 32.2366L48.6082 32.6298L49.0496 32.4076L49.1899 31.9841C49.3228 31.5828 49.8105 31.4349 50.1416 31.6955L51.9226 33.0973C52.2466 33.3523 52.231 33.8506 51.8917 34.0846L51.6476 34.2529C51.7448 34.329 51.8156 34.4298 51.8536 34.5444L51.9 34.6846L52.0242 34.6568C52.1632 34.6258 52.3056 34.6451 52.4285 34.7071C52.4544 34.6769 52.4835 34.6489 52.5158 34.6237L53.1755 34.1072C53.3631 33.9603 53.6186 33.9369 53.8295 34.0473L55.1101 34.7176C55.1183 34.7075 55.1269 34.6977 55.1358 34.6882L56.2353 33.5077C56.4018 33.329 56.6581 33.2674 56.8869 33.3511L57.3532 33.5218L58.0165 32.9312L57.3928 32.8346C57.1395 32.7954 56.9428 32.6024 56.8907 32.3587L56.5425 32.4522C56.2033 32.5432 55.8582 32.3272 55.7894 31.9807L55.7272 31.6676L55.127 31.5813C54.7933 31.5334 54.5682 31.2245 54.6093 30.8992C54.5009 31.0046 54.3571 31.066 54.2059 31.0707L54.1852 31.1435C54.1025 31.4349 53.8203 31.6216 53.5217 31.5824L51.8358 31.361C51.5735 31.3266 51.3633 31.1254 51.316 30.8635L51.2417 30.4518L51.1407 30.4292L50.8607 30.5232C50.6922 30.5797 50.5077 30.5593 50.3554 30.4673L49.2559 29.8033C48.9036 29.5906 48.8579 29.0948 49.1651 28.8204L51.7532 26.5092L51.2371 25.9579L50.7043 26.101L50.1719 26.875C49.9666 27.1735 49.5498 27.2276 49.2759 26.9914L49.2087 26.9334L47.9204 28.3429C47.8447 28.4256 47.7483 28.4854 47.642 28.5164C47.7665 28.8507 47.8346 29.2127 47.8346 29.5907C47.8346 31.2813 46.473 32.6518 44.7934 32.6518C44.3686 32.6518 43.9641 32.5641 43.5969 32.4058ZM44.7934 31.4274C45.8011 31.4274 46.6181 30.6051 46.6181 29.5907C46.6181 28.5764 45.8011 27.7541 44.7934 27.7541C43.7856 27.7541 42.9686 28.5764 42.9686 29.5907C42.9686 30.6051 43.7856 31.4274 44.7934 31.4274Z"/>
</mask>
<path fill-rule="evenodd" clip-rule="evenodd" d="M41.7522 29.5907C41.7522 27.9002 43.1137 26.5297 44.7934 26.5297C45.5985 26.5297 46.3529 26.8472 46.9131 27.3956L47.1695 27.3559L48.711 25.6694C48.9328 25.4267 49.3058 25.4045 49.5545 25.6191L49.8314 25.2189C49.9135 25.0995 50.0353 25.0133 50.1747 24.9759L51.2743 24.6808C51.4902 24.6228 51.7204 24.6887 51.8737 24.8525L53.0683 26.1287C53.3036 26.38 53.2859 26.7773 53.0293 27.0065L50.5925 29.1826L50.7414 29.2725L50.9158 29.214C51.0204 29.1789 51.1325 29.1731 51.2401 29.1972L51.8998 29.3447C52.1387 29.3982 52.3225 29.5905 52.3663 29.8329L52.4335 30.2047L53.1595 30.3L53.1621 30.2906C53.2367 30.0278 53.4754 29.8466 53.747 29.8466H53.9136L54.3186 29.3881C54.5605 29.1141 54.9858 29.1141 55.2278 29.3881L55.8142 30.0521C55.9159 30.1673 55.9694 30.3151 55.9678 30.4654L56.3252 30.5168C56.5805 30.5535 56.7851 30.7483 56.8356 31.0028L56.8552 31.1011L57.3286 30.974C57.7147 30.8703 58.0936 31.1633 58.0936 31.5655V31.7043L59.4836 31.9196C59.9931 31.9984 60.1802 32.6394 59.7941 32.9832L57.8883 34.6801C57.7214 34.8288 57.487 34.8736 57.2775 34.7969L56.8483 34.6398L56.0925 35.4513L55.936 35.801C55.7926 36.1216 55.4108 36.255 55.1008 36.0928L53.73 35.3753L54.2285 36.2875C54.4514 36.6955 54.1581 37.1947 53.6955 37.1947H53.2557C53.0752 37.1947 52.904 37.114 52.7884 36.9744L51.9263 35.9331L51.6284 35.9997C51.3242 36.0677 51.018 35.8933 50.9195 35.5956L50.7578 35.1075L50.2435 34.7048C49.9183 34.4503 49.9333 33.9508 50.2731 33.7165L50.5191 33.5469L50.0536 33.1805C49.9953 33.2688 49.9148 33.3411 49.819 33.3893L48.8365 33.8838C48.6412 33.982 48.4087 33.9675 48.2271 33.8456L47.9207 33.6401L47.8624 33.7576C47.8392 33.8041 47.8103 33.8475 47.7763 33.8866L47.9989 34.2973C48.0896 34.4646 48.0977 34.6649 48.0208 34.8391L47.7276 35.5031C47.6299 35.7242 47.4121 35.8667 47.1717 35.8667H46.7341L46.5989 36.6832C46.5603 36.9163 46.3918 37.1062 46.166 37.1712L45.4879 37.3662L45.2733 38.3385C45.202 38.6611 44.8891 38.8686 44.5664 38.8072L42.066 38.331L41.686 38.537L41.761 38.9904C41.7746 39.0726 41.7713 39.1555 41.7524 39.2343L42.0131 39.3218C42.2309 39.3948 42.3865 39.5837 42.4216 39.8068H43.0669C43.1985 39.8068 43.3265 39.8498 43.4318 39.9293L44.0182 40.3719C44.2383 40.538 44.3202 40.8321 44.218 41.0891L44.0714 41.458C44.0408 41.5349 43.995 41.6049 43.9368 41.6635L43.5952 42.0074L43.3056 42.8404L44.0616 43.6013C44.2336 43.7745 44.2866 44.0342 44.1962 44.2616L43.7564 45.3683C43.664 45.6007 43.4404 45.7531 43.1917 45.7531H43.0339L42.8116 46.3797C42.7948 46.4269 42.7724 46.4718 42.7448 46.5134L42.2606 47.2445V48.3872C42.2606 48.8203 41.826 49.1165 41.4264 48.9556L40.6443 48.6407L40.3314 48.877C40.0823 49.0649 39.7325 49.0334 39.5207 48.8038L38.8922 48.1225L38.6492 48.2583C38.5363 48.3214 38.4065 48.3468 38.2784 48.3307L37.1055 48.1831C36.6749 48.1289 36.4375 47.6512 36.6529 47.2719L36.8441 46.935L36.7247 46.0334C36.7057 45.8905 36.7375 45.7454 36.8144 45.6238L37.0443 45.2602L37.0133 45.2334L34.4832 44.2775H33.5674C33.4382 44.2775 33.3124 44.2361 33.2081 44.1593L29.2637 41.2526H28.8762C28.7454 41.2526 28.6181 41.2102 28.5132 41.1316L22.7958 36.8524C22.6695 36.758 22.5846 36.618 22.5587 36.4618L22.2954 34.8714L21.5389 34.0466C21.4672 33.9684 21.417 33.8727 21.3932 33.769L20.9897 32.009L20.3257 31.2849L20.1891 31.2391C20.1117 31.4023 19.9654 31.5245 19.7878 31.5692L19.2014 31.7168C19.0517 31.7544 18.8933 31.7334 18.7585 31.658L18.2365 31.3662H16.5616C16.439 31.3662 16.3193 31.3289 16.2181 31.2592L14.8254 30.3001C14.5662 30.1216 14.4847 29.7738 14.6372 29.4975L14.8479 29.1158L14.6249 28.6668C14.5284 28.4726 14.5421 28.2435 14.6561 28.0637L14.3713 27.8552C14.1418 27.6872 14.0582 27.3816 14.17 27.1189L14.4105 26.5541L14.325 26.4967H13.0432C12.8627 26.4967 12.6915 26.416 12.5759 26.2764L11.9803 25.5571L11.4579 25.4519C11.3482 25.4299 11.2468 25.3778 11.1646 25.3015L10.4717 24.6577L9.98048 24.8151L10.203 25.2183C10.4825 25.7246 9.97186 26.3023 9.43975 26.0817L8.66696 25.7614V25.8845C8.66696 26.0207 8.62187 26.1529 8.53883 26.2604L8.02573 26.9244C7.92232 27.0582 7.76841 27.1429 7.60068 27.1582L6.21925 27.2846L5.51502 28.0441V28.643L5.80166 30.5904C5.85979 30.9854 5.53284 31.3297 5.13824 31.2892L1.5465 30.9203C1.23609 30.8884 1 30.6253 1 30.3113V13.4158C1 13.15 1.17042 12.9146 1.4218 12.8331L10.0713 10.0295C10.2373 9.97566 10.4183 9.99617 10.5683 10.0858L15.2595 12.8894L15.329 12.9378L18.994 15.8889C19.1058 15.9789 19.1824 16.1057 19.2105 16.2469L19.324 16.8184L21.924 19.6971L26.0005 19.0816C26.0535 19.0736 26.1072 19.0727 26.1604 19.0789L29.7923 19.5007L31.243 18.7706C31.5107 18.6359 31.836 18.7172 32.0099 18.9623L32.6952 19.928L33.8044 20.8351C33.8715 20.8899 33.9262 20.9586 33.9648 21.0364L34.7371 22.5911L35.0927 22.442C35.4933 22.274 35.9349 22.5703 35.9349 23.0071V25.6632C35.9349 25.9148 35.784 26.131 35.5684 26.2251V27.0297L36.8669 27.3564C37.1026 27.4157 37.2806 27.6106 37.3197 27.852L37.7162 30.3036L39.1868 29.7853C39.3373 29.7322 39.5025 29.7408 39.6468 29.8091L40.8929 30.3994C41.1061 30.5003 41.2422 30.7162 41.2422 30.9533V31.7402L42.2641 32.2096L41.9802 31.2809C41.9331 31.1267 41.9495 30.9686 42.0139 30.8346C41.8429 30.4481 41.7522 30.026 41.7522 29.5907ZM43.5969 32.4058L43.7293 32.8391C43.8497 33.2328 43.5572 33.6313 43.148 33.6313H42.5616C42.4745 33.6313 42.3883 33.6125 42.3091 33.5761L40.3814 32.6907C40.1647 32.5912 40.0257 32.3735 40.0257 32.1338V31.3418L39.354 31.0237L37.4335 31.7006C37.0764 31.8265 36.6929 31.5971 36.6321 31.2212L36.1833 28.4465L34.8126 28.1016C34.5418 28.0335 34.3519 27.7886 34.3519 27.5077V25.6632C34.3519 25.4115 34.5027 25.1953 34.7184 25.1012V23.9254L34.681 23.9411C34.3859 24.0649 34.046 23.9376 33.903 23.6498L32.9354 21.7021L31.8644 20.8262C31.8222 20.7916 31.7847 20.7515 31.753 20.7069L31.3221 20.0997L30.1744 20.6773C30.0687 20.7305 29.95 20.7515 29.8326 20.7379L26.1012 20.3045L21.7829 20.9565C21.582 20.9868 21.3793 20.9142 21.2426 20.7629L18.3106 17.5166C18.2364 17.4345 18.1858 17.3337 18.1642 17.2249L18.0611 16.7057L14.6021 13.9205L10.1831 11.2796L2.21648 13.8618V29.7584L4.4837 29.9912L4.3051 28.7778L4.29854 28.6881V27.8028C4.29854 27.6477 4.357 27.4984 4.46212 27.3851L5.48833 26.2784C5.59034 26.1684 5.72903 26.1 5.87792 26.0864L7.22759 25.9629L7.45047 25.6745V25.3681C7.45047 25.2057 7.51456 25.05 7.62862 24.9352L7.99513 24.5663C8.16876 24.3915 8.42975 24.339 8.65681 24.4331L8.78397 24.4858L8.89537 24.1442C8.95628 23.9574 9.10261 23.8114 9.28872 23.7518L10.4397 23.3829C10.6481 23.3161 10.8761 23.3671 11.0368 23.5164L11.8641 24.285L12.4294 24.3988C12.5657 24.4263 12.6885 24.4998 12.7774 24.6072L13.3281 25.2723H14.5092C14.6293 25.2723 14.7467 25.3081 14.8466 25.3751L15.5063 25.8178C15.7503 25.9815 15.8435 26.2971 15.728 26.5684L15.4793 27.1523L15.8932 27.4552C16.1776 27.6634 16.2278 28.0703 16.0027 28.3423L15.8908 28.4773L16.0794 28.857C16.1692 29.0378 16.1646 29.2515 16.0671 29.4281L15.9697 29.6045L16.7498 30.1417H18.3941C18.4975 30.1417 18.5992 30.1683 18.6895 30.2188L19.1393 30.4703L19.1519 30.4671L19.202 30.2906C19.2971 29.9555 19.6507 29.7678 19.9792 29.878L20.8588 30.1732C20.9562 30.2058 21.0438 30.2628 21.1134 30.3387L21.993 31.2978C22.0647 31.376 22.115 31.4717 22.1387 31.5754L22.5423 33.3354L23.3124 34.1752C23.3928 34.2628 23.446 34.3722 23.4655 34.4898L23.7184 36.0171L29.0775 40.0282H29.4626C29.5918 40.0282 29.7176 40.0696 29.8219 40.1464L33.7663 43.0531H34.5936C34.6666 43.0531 34.739 43.0663 34.8074 43.0921L37.5413 44.1251C37.6078 44.1502 37.6695 44.1869 37.7234 44.2334L38.2365 44.6761C38.4664 44.8743 38.5163 45.2125 38.3538 45.4696L37.9598 46.0928L38.0771 46.9782C38.0812 47.0095 38.0829 47.0408 38.0823 47.072L38.2321 47.0909L38.7181 46.8191C38.9628 46.6823 39.2687 46.7312 39.4592 46.9377L40.0395 47.5667L40.1879 47.4547C40.3577 47.3265 40.5816 47.2967 40.7787 47.3761L41.0441 47.4829V47.0592C41.0441 46.9383 41.0796 46.8201 41.1462 46.7196L41.6911 45.8969L42.0324 44.935C42.1189 44.6913 42.3482 44.5287 42.6052 44.5287H42.7799L42.9178 44.1817L42.1752 43.4342C42.01 43.2679 41.954 43.0211 42.0311 42.7991L42.4928 41.4711C42.5229 41.3843 42.5722 41.3054 42.6368 41.2404L42.8446 41.0312H41.8208C41.4849 41.0312 41.2125 40.7571 41.2125 40.419V40.3438L40.5289 40.1145C40.1 39.9706 39.9714 39.4226 40.2912 39.1008L40.5096 38.8809L40.4145 38.3063C40.3717 38.0479 40.497 37.7908 40.7261 37.6666L41.679 37.1502C41.8018 37.0836 41.9435 37.0616 42.0804 37.0877L44.2136 37.4939L44.379 36.7448C44.4228 36.5463 44.5613 36.384 44.7464 36.3094H44.6795C44.1148 36.3094 43.8549 35.6022 44.2837 35.2323L44.7968 34.7897C44.907 34.6945 45.0474 34.6423 45.1926 34.6423H46.7765L46.7871 34.6182L46.4912 34.0721C46.362 33.8336 46.4043 33.538 46.595 33.346L46.8185 33.1211L47.1408 32.4722C47.3044 32.1428 47.7178 32.0323 48.0222 32.2366L48.6082 32.6298L49.0496 32.4076L49.1899 31.9841C49.3228 31.5828 49.8105 31.4349 50.1416 31.6955L51.9226 33.0973C52.2466 33.3523 52.231 33.8506 51.8917 34.0846L51.6476 34.2529C51.7448 34.329 51.8156 34.4298 51.8536 34.5444L51.9 34.6846L52.0242 34.6568C52.1632 34.6258 52.3056 34.6451 52.4285 34.7071C52.4544 34.6769 52.4835 34.6489 52.5158 34.6237L53.1755 34.1072C53.3631 33.9603 53.6186 33.9369 53.8295 34.0473L55.1101 34.7176C55.1183 34.7075 55.1269 34.6977 55.1358 34.6882L56.2353 33.5077C56.4018 33.329 56.6581 33.2674 56.8869 33.3511L57.3532 33.5218L58.0165 32.9312L57.3928 32.8346C57.1395 32.7954 56.9428 32.6024 56.8907 32.3587L56.5425 32.4522C56.2033 32.5432 55.8582 32.3272 55.7894 31.9807L55.7272 31.6676L55.127 31.5813C54.7933 31.5334 54.5682 31.2245 54.6093 30.8992C54.5009 31.0046 54.3571 31.066 54.2059 31.0707L54.1852 31.1435C54.1025 31.4349 53.8203 31.6216 53.5217 31.5824L51.8358 31.361C51.5735 31.3266 51.3633 31.1254 51.316 30.8635L51.2417 30.4518L51.1407 30.4292L50.8607 30.5232C50.6922 30.5797 50.5077 30.5593 50.3554 30.4673L49.2559 29.8033C48.9036 29.5906 48.8579 29.0948 49.1651 28.8204L51.7532 26.5092L51.2371 25.9579L50.7043 26.101L50.1719 26.875C49.9666 27.1735 49.5498 27.2276 49.2759 26.9914L49.2087 26.9334L47.9204 28.3429C47.8447 28.4256 47.7483 28.4854 47.642 28.5164C47.7665 28.8507 47.8346 29.2127 47.8346 29.5907C47.8346 31.2813 46.473 32.6518 44.7934 32.6518C44.3686 32.6518 43.9641 32.5641 43.5969 32.4058ZM44.7934 31.4274C45.8011 31.4274 46.6181 30.6051 46.6181 29.5907C46.6181 28.5764 45.8011 27.7541 44.7934 27.7541C43.7856 27.7541 42.9686 28.5764 42.9686 29.5907C42.9686 30.6051 43.7856 31.4274 44.7934 31.4274Z" fill="#1140A6"/>
<path fill-rule="evenodd" clip-rule="evenodd" d="M41.7522 29.5907C41.7522 27.9002 43.1137 26.5297 44.7934 26.5297C45.5985 26.5297 46.3529 26.8472 46.9131 27.3956L47.1695 27.3559L48.711 25.6694C48.9328 25.4267 49.3058 25.4045 49.5545 25.6191L49.8314 25.2189C49.9135 25.0995 50.0353 25.0133 50.1747 24.9759L51.2743 24.6808C51.4902 24.6228 51.7204 24.6887 51.8737 24.8525L53.0683 26.1287C53.3036 26.38 53.2859 26.7773 53.0293 27.0065L50.5925 29.1826L50.7414 29.2725L50.9158 29.214C51.0204 29.1789 51.1325 29.1731 51.2401 29.1972L51.8998 29.3447C52.1387 29.3982 52.3225 29.5905 52.3663 29.8329L52.4335 30.2047L53.1595 30.3L53.1621 30.2906C53.2367 30.0278 53.4754 29.8466 53.747 29.8466H53.9136L54.3186 29.3881C54.5605 29.1141 54.9858 29.1141 55.2278 29.3881L55.8142 30.0521C55.9159 30.1673 55.9694 30.3151 55.9678 30.4654L56.3252 30.5168C56.5805 30.5535 56.7851 30.7483 56.8356 31.0028L56.8552 31.1011L57.3286 30.974C57.7147 30.8703 58.0936 31.1633 58.0936 31.5655V31.7043L59.4836 31.9196C59.9931 31.9984 60.1802 32.6394 59.7941 32.9832L57.8883 34.6801C57.7214 34.8288 57.487 34.8736 57.2775 34.7969L56.8483 34.6398L56.0925 35.4513L55.936 35.801C55.7926 36.1216 55.4108 36.255 55.1008 36.0928L53.73 35.3753L54.2285 36.2875C54.4514 36.6955 54.1581 37.1947 53.6955 37.1947H53.2557C53.0752 37.1947 52.904 37.114 52.7884 36.9744L51.9263 35.9331L51.6284 35.9997C51.3242 36.0677 51.018 35.8933 50.9195 35.5956L50.7578 35.1075L50.2435 34.7048C49.9183 34.4503 49.9333 33.9508 50.2731 33.7165L50.5191 33.5469L50.0536 33.1805C49.9953 33.2688 49.9148 33.3411 49.819 33.3893L48.8365 33.8838C48.6412 33.982 48.4087 33.9675 48.2271 33.8456L47.9207 33.6401L47.8624 33.7576C47.8392 33.8041 47.8103 33.8475 47.7763 33.8866L47.9989 34.2973C48.0896 34.4646 48.0977 34.6649 48.0208 34.8391L47.7276 35.5031C47.6299 35.7242 47.4121 35.8667 47.1717 35.8667H46.7341L46.5989 36.6832C46.5603 36.9163 46.3918 37.1062 46.166 37.1712L45.4879 37.3662L45.2733 38.3385C45.202 38.6611 44.8891 38.8686 44.5664 38.8072L42.066 38.331L41.686 38.537L41.761 38.9904C41.7746 39.0726 41.7713 39.1555 41.7524 39.2343L42.0131 39.3218C42.2309 39.3948 42.3865 39.5837 42.4216 39.8068H43.0669C43.1985 39.8068 43.3265 39.8498 43.4318 39.9293L44.0182 40.3719C44.2383 40.538 44.3202 40.8321 44.218 41.0891L44.0714 41.458C44.0408 41.5349 43.995 41.6049 43.9368 41.6635L43.5952 42.0074L43.3056 42.8404L44.0616 43.6013C44.2336 43.7745 44.2866 44.0342 44.1962 44.2616L43.7564 45.3683C43.664 45.6007 43.4404 45.7531 43.1917 45.7531H43.0339L42.8116 46.3797C42.7948 46.4269 42.7724 46.4718 42.7448 46.5134L42.2606 47.2445V48.3872C42.2606 48.8203 41.826 49.1165 41.4264 48.9556L40.6443 48.6407L40.3314 48.877C40.0823 49.0649 39.7325 49.0334 39.5207 48.8038L38.8922 48.1225L38.6492 48.2583C38.5363 48.3214 38.4065 48.3468 38.2784 48.3307L37.1055 48.1831C36.6749 48.1289 36.4375 47.6512 36.6529 47.2719L36.8441 46.935L36.7247 46.0334C36.7057 45.8905 36.7375 45.7454 36.8144 45.6238L37.0443 45.2602L37.0133 45.2334L34.4832 44.2775H33.5674C33.4382 44.2775 33.3124 44.2361 33.2081 44.1593L29.2637 41.2526H28.8762C28.7454 41.2526 28.6181 41.2102 28.5132 41.1316L22.7958 36.8524C22.6695 36.758 22.5846 36.618 22.5587 36.4618L22.2954 34.8714L21.5389 34.0466C21.4672 33.9684 21.417 33.8727 21.3932 33.769L20.9897 32.009L20.3257 31.2849L20.1891 31.2391C20.1117 31.4023 19.9654 31.5245 19.7878 31.5692L19.2014 31.7168C19.0517 31.7544 18.8933 31.7334 18.7585 31.658L18.2365 31.3662H16.5616C16.439 31.3662 16.3193 31.3289 16.2181 31.2592L14.8254 30.3001C14.5662 30.1216 14.4847 29.7738 14.6372 29.4975L14.8479 29.1158L14.6249 28.6668C14.5284 28.4726 14.5421 28.2435 14.6561 28.0637L14.3713 27.8552C14.1418 27.6872 14.0582 27.3816 14.17 27.1189L14.4105 26.5541L14.325 26.4967H13.0432C12.8627 26.4967 12.6915 26.416 12.5759 26.2764L11.9803 25.5571L11.4579 25.4519C11.3482 25.4299 11.2468 25.3778 11.1646 25.3015L10.4717 24.6577L9.98048 24.8151L10.203 25.2183C10.4825 25.7246 9.97186 26.3023 9.43975 26.0817L8.66696 25.7614V25.8845C8.66696 26.0207 8.62187 26.1529 8.53883 26.2604L8.02573 26.9244C7.92232 27.0582 7.76841 27.1429 7.60068 27.1582L6.21925 27.2846L5.51502 28.0441V28.643L5.80166 30.5904C5.85979 30.9854 5.53284 31.3297 5.13824 31.2892L1.5465 30.9203C1.23609 30.8884 1 30.6253 1 30.3113V13.4158C1 13.15 1.17042 12.9146 1.4218 12.8331L10.0713 10.0295C10.2373 9.97566 10.4183 9.99617 10.5683 10.0858L15.2595 12.8894L15.329 12.9378L18.994 15.8889C19.1058 15.9789 19.1824 16.1057 19.2105 16.2469L19.324 16.8184L21.924 19.6971L26.0005 19.0816C26.0535 19.0736 26.1072 19.0727 26.1604 19.0789L29.7923 19.5007L31.243 18.7706C31.5107 18.6359 31.836 18.7172 32.0099 18.9623L32.6952 19.928L33.8044 20.8351C33.8715 20.8899 33.9262 20.9586 33.9648 21.0364L34.7371 22.5911L35.0927 22.442C35.4933 22.274 35.9349 22.5703 35.9349 23.0071V25.6632C35.9349 25.9148 35.784 26.131 35.5684 26.2251V27.0297L36.8669 27.3564C37.1026 27.4157 37.2806 27.6106 37.3197 27.852L37.7162 30.3036L39.1868 29.7853C39.3373 29.7322 39.5025 29.7408 39.6468 29.8091L40.8929 30.3994C41.1061 30.5003 41.2422 30.7162 41.2422 30.9533V31.7402L42.2641 32.2096L41.9802 31.2809C41.9331 31.1267 41.9495 30.9686 42.0139 30.8346C41.8429 30.4481 41.7522 30.026 41.7522 29.5907ZM43.5969 32.4058L43.7293 32.8391C43.8497 33.2328 43.5572 33.6313 43.148 33.6313H42.5616C42.4745 33.6313 42.3883 33.6125 42.3091 33.5761L40.3814 32.6907C40.1647 32.5912 40.0257 32.3735 40.0257 32.1338V31.3418L39.354 31.0237L37.4335 31.7006C37.0764 31.8265 36.6929 31.5971 36.6321 31.2212L36.1833 28.4465L34.8126 28.1016C34.5418 28.0335 34.3519 27.7886 34.3519 27.5077V25.6632C34.3519 25.4115 34.5027 25.1953 34.7184 25.1012V23.9254L34.681 23.9411C34.3859 24.0649 34.046 23.9376 33.903 23.6498L32.9354 21.7021L31.8644 20.8262C31.8222 20.7916 31.7847 20.7515 31.753 20.7069L31.3221 20.0997L30.1744 20.6773C30.0687 20.7305 29.95 20.7515 29.8326 20.7379L26.1012 20.3045L21.7829 20.9565C21.582 20.9868 21.3793 20.9142 21.2426 20.7629L18.3106 17.5166C18.2364 17.4345 18.1858 17.3337 18.1642 17.2249L18.0611 16.7057L14.6021 13.9205L10.1831 11.2796L2.21648 13.8618V29.7584L4.4837 29.9912L4.3051 28.7778L4.29854 28.6881V27.8028C4.29854 27.6477 4.357 27.4984 4.46212 27.3851L5.48833 26.2784C5.59034 26.1684 5.72903 26.1 5.87792 26.0864L7.22759 25.9629L7.45047 25.6745V25.3681C7.45047 25.2057 7.51456 25.05 7.62862 24.9352L7.99513 24.5663C8.16876 24.3915 8.42975 24.339 8.65681 24.4331L8.78397 24.4858L8.89537 24.1442C8.95628 23.9574 9.10261 23.8114 9.28872 23.7518L10.4397 23.3829C10.6481 23.3161 10.8761 23.3671 11.0368 23.5164L11.8641 24.285L12.4294 24.3988C12.5657 24.4263 12.6885 24.4998 12.7774 24.6072L13.3281 25.2723H14.5092C14.6293 25.2723 14.7467 25.3081 14.8466 25.3751L15.5063 25.8178C15.7503 25.9815 15.8435 26.2971 15.728 26.5684L15.4793 27.1523L15.8932 27.4552C16.1776 27.6634 16.2278 28.0703 16.0027 28.3423L15.8908 28.4773L16.0794 28.857C16.1692 29.0378 16.1646 29.2515 16.0671 29.4281L15.9697 29.6045L16.7498 30.1417H18.3941C18.4975 30.1417 18.5992 30.1683 18.6895 30.2188L19.1393 30.4703L19.1519 30.4671L19.202 30.2906C19.2971 29.9555 19.6507 29.7678 19.9792 29.878L20.8588 30.1732C20.9562 30.2058 21.0438 30.2628 21.1134 30.3387L21.993 31.2978C22.0647 31.376 22.115 31.4717 22.1387 31.5754L22.5423 33.3354L23.3124 34.1752C23.3928 34.2628 23.446 34.3722 23.4655 34.4898L23.7184 36.0171L29.0775 40.0282H29.4626C29.5918 40.0282 29.7176 40.0696 29.8219 40.1464L33.7663 43.0531H34.5936C34.6666 43.0531 34.739 43.0663 34.8074 43.0921L37.5413 44.1251C37.6078 44.1502 37.6695 44.1869 37.7234 44.2334L38.2365 44.6761C38.4664 44.8743 38.5163 45.2125 38.3538 45.4696L37.9598 46.0928L38.0771 46.9782C38.0812 47.0095 38.0829 47.0408 38.0823 47.072L38.2321 47.0909L38.7181 46.8191C38.9628 46.6823 39.2687 46.7312 39.4592 46.9377L40.0395 47.5667L40.1879 47.4547C40.3577 47.3265 40.5816 47.2967 40.7787 47.3761L41.0441 47.4829V47.0592C41.0441 46.9383 41.0796 46.8201 41.1462 46.7196L41.6911 45.8969L42.0324 44.935C42.1189 44.6913 42.3482 44.5287 42.6052 44.5287H42.7799L42.9178 44.1817L42.1752 43.4342C42.01 43.2679 41.954 43.0211 42.0311 42.7991L42.4928 41.4711C42.5229 41.3843 42.5722 41.3054 42.6368 41.2404L42.8446 41.0312H41.8208C41.4849 41.0312 41.2125 40.7571 41.2125 40.419V40.3438L40.5289 40.1145C40.1 39.9706 39.9714 39.4226 40.2912 39.1008L40.5096 38.8809L40.4145 38.3063C40.3717 38.0479 40.497 37.7908 40.7261 37.6666L41.679 37.1502C41.8018 37.0836 41.9435 37.0616 42.0804 37.0877L44.2136 37.4939L44.379 36.7448C44.4228 36.5463 44.5613 36.384 44.7464 36.3094H44.6795C44.1148 36.3094 43.8549 35.6022 44.2837 35.2323L44.7968 34.7897C44.907 34.6945 45.0474 34.6423 45.1926 34.6423H46.7765L46.7871 34.6182L46.4912 34.0721C46.362 33.8336 46.4043 33.538 46.595 33.346L46.8185 33.1211L47.1408 32.4722C47.3044 32.1428 47.7178 32.0323 48.0222 32.2366L48.6082 32.6298L49.0496 32.4076L49.1899 31.9841C49.3228 31.5828 49.8105 31.4349 50.1416 31.6955L51.9226 33.0973C52.2466 33.3523 52.231 33.8506 51.8917 34.0846L51.6476 34.2529C51.7448 34.329 51.8156 34.4298 51.8536 34.5444L51.9 34.6846L52.0242 34.6568C52.1632 34.6258 52.3056 34.6451 52.4285 34.7071C52.4544 34.6769 52.4835 34.6489 52.5158 34.6237L53.1755 34.1072C53.3631 33.9603 53.6186 33.9369 53.8295 34.0473L55.1101 34.7176C55.1183 34.7075 55.1269 34.6977 55.1358 34.6882L56.2353 33.5077C56.4018 33.329 56.6581 33.2674 56.8869 33.3511L57.3532 33.5218L58.0165 32.9312L57.3928 32.8346C57.1395 32.7954 56.9428 32.6024 56.8907 32.3587L56.5425 32.4522C56.2033 32.5432 55.8582 32.3272 55.7894 31.9807L55.7272 31.6676L55.127 31.5813C54.7933 31.5334 54.5682 31.2245 54.6093 30.8992C54.5009 31.0046 54.3571 31.066 54.2059 31.0707L54.1852 31.1435C54.1025 31.4349 53.8203 31.6216 53.5217 31.5824L51.8358 31.361C51.5735 31.3266 51.3633 31.1254 51.316 30.8635L51.2417 30.4518L51.1407 30.4292L50.8607 30.5232C50.6922 30.5797 50.5077 30.5593 50.3554 30.4673L49.2559 29.8033C48.9036 29.5906 48.8579 29.0948 49.1651 28.8204L51.7532 26.5092L51.2371 25.9579L50.7043 26.101L50.1719 26.875C49.9666 27.1735 49.5498 27.2276 49.2759 26.9914L49.2087 26.9334L47.9204 28.3429C47.8447 28.4256 47.7483 28.4854 47.642 28.5164C47.7665 28.8507 47.8346 29.2127 47.8346 29.5907C47.8346 31.2813 46.473 32.6518 44.7934 32.6518C44.3686 32.6518 43.9641 32.5641 43.5969 32.4058ZM44.7934 31.4274C45.8011 31.4274 46.6181 30.6051 46.6181 29.5907C46.6181 28.5764 45.8011 27.7541 44.7934 27.7541C43.7856 27.7541 42.9686 28.5764 42.9686 29.5907C42.9686 30.6051 43.7856 31.4274 44.7934 31.4274Z" stroke="#1140A6" stroke-width="0.4" mask="url(#path-1-outside-1_58_597)"/>
</g>
</g>
<defs>
<clipPath id="clip0_58_597">
<rect width="60" height="60" fill="white"/>
</clipPath>
</defs>
</svg>
