<svg width="52" height="55" viewBox="0 0 52 55" fill="none" xmlns="http://www.w3.org/2000/svg">
<path id="logo-vector" d="M39.7957 37.8088L42.9008 42.1695C45.2097 40.5469 47.1743 38.4885 48.6824 36.1117C50.1905 33.7349 51.2127 31.0863 51.6904 28.317C52.1682 25.5478 52.0923 22.7121 51.467 19.972C50.8417 17.2319 49.6793 14.641 48.0461 12.3472C46.4129 10.0534 44.3409 8.10165 41.9485 6.60337C39.5561 5.10509 36.89 4.08963 34.1025 3.61497C31.3151 3.1403 28.4608 3.21573 25.7027 3.83695C22.9446 4.45816 20.3366 5.613 18.0277 7.23552L21.149 11.6124C24.2088 9.46084 27.9274 8.43548 31.6656 8.71254C35.4039 8.9896 38.9282 10.5518 41.6327 13.1305C37.7787 14.7112 34.0875 16.6584 30.6106 18.9448C23.446 23.5362 17.3495 29.5928 12.728 36.7105C9.55356 32.0912 8.33358 26.4176 9.33107 20.9129C10.3285 15.4082 13.4636 10.5135 18.0602 7.28397L12.8743 0C6.27537 4.63895 1.80168 11.6922 0.437356 19.6081C-0.926964 27.524 0.929851 35.654 5.59931 42.2098C10.2688 48.7656 17.3684 53.2101 25.3363 54.5655C33.3043 55.9209 41.4878 54.0762 48.0867 49.4373L42.9008 42.1533C38.9921 44.8962 34.2732 46.2635 29.4931 46.0382C24.713 45.8129 20.1456 44.0079 16.5158 40.9097C20.7783 33.9285 26.5611 27.9848 33.4393 23.5154C37.0377 21.1175 40.8992 19.1344 44.9492 17.6043C46.6306 21.0342 47.0355 24.9447 46.0922 28.6429C45.149 32.3411 42.9184 35.5882 39.7957 37.8088Z" fill="white"/>
</svg>
