<svg width="18" height="18" viewBox="0 0 18 18" fill="none" xmlns="http://www.w3.org/2000/svg">
<g id="instagram" opacity="0.4" clip-path="url(#clip0_239_176)">
<path id="Vector" d="M9.003 4.37842C6.45075 4.37842 4.3845 6.44692 4.3845 8.99692C4.3845 11.5492 6.453 13.6154 9.003 13.6154C11.5553 13.6154 13.6215 11.5469 13.6215 8.99692C13.6215 6.44467 11.553 4.37842 9.003 4.37842ZM9.003 11.9947C7.34625 11.9947 6.00525 10.6529 6.00525 8.99692C6.00525 7.34092 7.347 5.99917 9.003 5.99917C10.659 5.99917 12.0007 7.34092 12.0007 8.99692C12.0015 10.6529 10.6597 11.9947 9.003 11.9947Z" fill="white"/>
<path id="Vector_2" d="M12.711 0.0570283C11.055 -0.0202217 6.95322 -0.0164717 5.29572 0.0570283C3.83922 0.125278 2.55447 0.477028 1.51872 1.51278C-0.212278 3.24378 0.00897209 5.57628 0.00897209 8.99703C0.00897209 12.498 -0.186028 14.7765 1.51872 16.4813C3.25647 18.2183 5.62272 17.991 9.00297 17.991C12.471 17.991 13.668 17.9933 14.8942 17.5185C16.5615 16.8713 17.82 15.381 17.943 12.7043C18.021 11.0475 18.0165 6.94653 17.943 5.28903C17.7945 2.12928 16.0987 0.213028 12.711 0.0570283ZM15.3322 15.336C14.1975 16.4708 12.6232 16.3695 8.98122 16.3695C5.23122 16.3695 3.72747 16.425 2.63022 15.3248C1.36647 14.067 1.59522 12.0473 1.59522 8.98503C1.59522 4.84128 1.16997 1.85703 5.32872 1.64403C6.28422 1.61028 6.56547 1.59903 8.97072 1.59903L9.00447 1.62153C13.0012 1.62153 16.137 1.20303 16.3252 5.36103C16.368 6.30978 16.3777 6.59478 16.3777 8.99628C16.377 12.7028 16.4475 14.2155 15.3322 15.336Z" fill="white"/>
<path id="Vector_3" d="M13.8045 5.27545C14.4006 5.27545 14.8837 4.79225 14.8837 4.19619C14.8837 3.60014 14.4006 3.11694 13.8045 3.11694C13.2084 3.11694 12.7253 3.60014 12.7253 4.19619C12.7253 4.79225 13.2084 5.27545 13.8045 5.27545Z" fill="white"/>
</g>
<defs>
<clipPath id="clip0_239_176">
<rect width="18" height="18" fill="white"/>
</clipPath>
</defs>
</svg>
