<svg width="206" height="54" viewBox="0 0 206 54" fill="none" xmlns="http://www.w3.org/2000/svg">
<g id="&#208;&#161;&#208;&#187;&#208;&#190;&#208;&#185;_1" clip-path="url(#clip0_239_148)">
<g id="Group">
<path id="Vector" d="M80.5286 9.79661H76.7313C76.4631 9.09197 75.9672 8.49501 75.3209 8.0987C74.6747 7.7024 73.9143 7.529 73.1583 7.60549C70.787 7.60549 68.9444 9.35204 68.9444 12.7657C68.9444 16.1794 70.5947 18.0848 73.2224 18.0848C75.0009 18.0848 76.8435 17.402 76.8435 15.3538V15.0363H72.9019V11.8607H80.7048V20.8951H77.7567L77.6446 19.1009C77.058 19.8483 76.2914 20.4376 75.4152 20.8149C74.5389 21.1922 73.5811 21.3454 72.6296 21.2603C67.8228 21.2603 64.8587 18.0848 64.8587 12.8134C64.7811 11.7071 64.943 10.5973 65.3336 9.55809C65.7241 8.51893 66.3344 7.57451 67.1233 6.78815C67.9123 6.00178 68.8618 5.39165 69.9082 4.99862C70.9545 4.6056 72.0736 4.43877 73.1904 4.50934C74.8576 4.36942 76.5196 4.83274 77.8687 5.81355C79.2178 6.79435 80.1627 8.22624 80.5286 9.84424" fill="white"/>
<path id="Vector_2" d="M87.7386 4.71558H84.0215V20.9108H87.7386V4.71558Z" fill="white"/>
<path id="Vector_3" d="M103.2 14.9093C103.2 16.1654 102.824 17.3933 102.12 18.4377C101.416 19.4822 100.415 20.2962 99.2439 20.7769C98.0728 21.2576 96.7842 21.3834 95.541 21.1383C94.2978 20.8932 93.1558 20.2884 92.2595 19.4002C91.3632 18.5119 90.7528 17.3803 90.5055 16.1483C90.2582 14.9163 90.3851 13.6393 90.8702 12.4788C91.3553 11.3183 92.1767 10.3264 93.2307 9.62853C94.2846 8.93067 95.5238 8.55819 96.7913 8.55819C97.6476 8.50205 98.5061 8.62786 99.3094 8.92717C100.113 9.22649 100.842 9.69241 101.449 10.2937C102.056 10.8951 102.526 11.6179 102.828 12.4139C103.13 13.2099 103.257 14.0607 103.2 14.9093ZM94.1316 14.9093C94.1316 17.4338 95.2692 18.4023 96.7753 18.4023C98.2814 18.4023 99.435 17.3862 99.435 14.9093C99.435 12.4323 98.2654 11.4479 96.8073 11.4479C95.3493 11.4479 94.1636 12.353 94.1636 14.9093" fill="white"/>
<path id="Vector_4" d="M109.529 10.5427C109.938 9.94152 110.492 9.4519 111.142 9.11893C111.791 8.78597 112.515 8.62036 113.246 8.63737C116.451 8.63737 118.582 10.9873 118.582 14.9884C118.582 18.9896 116.387 21.3395 113.246 21.3395C112.515 21.3565 111.791 21.1909 111.142 20.8579C110.492 20.525 109.938 20.0353 109.529 19.4342V21.022H105.844V4.73145H109.561L109.529 10.5427ZM109.353 14.909C109.353 17.386 110.571 18.3545 112.029 18.3545C113.487 18.3545 114.736 17.1478 114.736 14.909C114.736 12.6703 113.519 11.4953 112.029 11.4953C110.539 11.4953 109.353 12.4321 109.353 14.909Z" fill="white"/>
<path id="Vector_5" d="M128.548 12.9404C128.548 11.5114 127.859 11.0192 126.497 11.0192C126.237 10.9929 125.974 11.0183 125.723 11.0939C125.473 11.1694 125.241 11.2935 125.039 11.4591C124.838 11.6246 124.672 11.8282 124.551 12.058C124.43 12.2878 124.356 12.5391 124.334 12.7975H120.857C121.049 10.5428 123.212 8.52637 126.817 8.52637C130.422 8.52637 132.297 9.93948 132.217 13.5755V16.1794V17.4337C132.193 18.6035 132.279 19.7729 132.473 20.9268H128.836V19.4661C128.356 20.0716 127.731 20.5485 127.017 20.8535C126.304 21.1585 125.524 21.282 124.75 21.2126C124.239 21.2696 123.722 21.2222 123.23 21.0734C122.738 20.9245 122.282 20.6773 121.89 20.347C121.498 20.0167 121.179 19.6103 120.951 19.153C120.724 18.6956 120.594 18.197 120.569 17.6878C120.569 14.7345 123.917 13.7819 128.58 13.4167L128.548 12.9404ZM128.644 15.5761C126.048 15.8301 124.318 16.1159 124.318 17.4179C124.318 18.1959 125.055 18.704 126.032 18.704C127.506 18.704 128.644 18.0847 128.644 15.8777V15.5761Z" fill="white"/>
<path id="Vector_6" d="M138.978 4.71558H135.261V20.9108H138.978V4.71558Z" fill="white"/>
<path id="Vector_7" d="M65.8521 23.7053H78.3816V27.0555H69.6974V29.8976H77.9009V33.2637H69.6974V36.5186H78.3816V39.9006H65.8521V23.7053Z" fill="white"/>
<path id="Vector_8" d="M85.0149 29.4689C85.4337 28.8662 86.0008 28.3793 86.6624 28.0542C87.3241 27.7291 88.0585 27.5767 88.7961 27.6112C91.9045 27.6112 92.8658 29.4213 92.8658 32.6762V39.8847H89.1486V33.5336C89.1486 31.803 89.1486 30.3581 87.29 30.3581C85.4314 30.3581 85.0309 31.3743 85.0309 33.5336V39.6942H81.3137V27.8812H85.0149V29.4689Z" fill="white"/>
<path id="Vector_9" d="M104.242 27.8811H107.943V38.2969C107.943 42.7585 105.075 44.1081 101.726 44.1081C98.3775 44.1081 96.0222 42.1869 95.6537 39.964H99.1466C99.4511 41.0278 100.316 41.5518 101.678 41.5518C103.569 41.5518 104.242 40.6309 104.242 39.0431V37.6141C103.831 38.2166 103.273 38.7068 102.621 39.0398C101.969 39.3727 101.242 39.5377 100.509 39.5195C97.304 39.5195 95.157 37.3919 95.157 33.5653C95.157 29.7388 97.4002 27.6112 100.541 27.6112C101.269 27.5969 101.99 27.7638 102.636 28.0966C103.283 28.4295 103.835 28.9176 104.242 29.5165V27.8811ZM99.0184 33.5336C99.0184 35.6771 100.236 36.6138 101.726 36.6138C103.216 36.6138 104.402 35.8676 104.402 33.5336C104.402 31.1996 103.184 30.4851 101.726 30.4851C100.268 30.4851 99.0184 31.4219 99.0184 33.5336Z" fill="white"/>
<path id="Vector_10" d="M115.025 26.6586H111.308V23.7053H115.025V26.6586ZM115.025 39.9006H111.276V27.8811H115.025V39.9006Z" fill="white"/>
<path id="Vector_11" d="M122.107 29.469C122.524 28.8686 123.089 28.3831 123.747 28.0582C124.406 27.7332 125.137 27.5795 125.872 27.6113C128.98 27.6113 129.942 29.4213 129.942 32.6763V39.8847H126.224V33.5337C126.224 31.803 126.224 30.3581 124.366 30.3581C122.507 30.3581 122.107 31.3743 122.107 33.5337V39.6942H118.39V27.8812H122.107V29.469Z" fill="white"/>
<path id="Vector_12" d="M145.019 36.1218C144.569 37.3413 143.744 38.3899 142.66 39.1193C141.576 39.8487 140.288 40.222 138.978 40.1865C138.106 40.2652 137.226 40.1569 136.4 39.8689C135.573 39.581 134.819 39.1201 134.188 38.5175C133.557 37.915 133.065 37.185 132.744 36.3771C132.423 35.5692 132.282 34.7023 132.329 33.8354C132.306 32.9871 132.46 32.1433 132.78 31.3562C133.1 30.5692 133.58 29.8558 134.19 29.2602C134.8 28.6647 135.527 28.1997 136.326 27.8942C137.125 27.5887 137.979 27.4492 138.834 27.4843C142.856 27.4843 145.243 30.5011 145.067 34.788H136.078C136.092 35.1343 136.176 35.4743 136.325 35.7881C136.474 36.1018 136.684 36.383 136.943 36.6152C137.203 36.8473 137.507 37.0258 137.837 37.1401C138.167 37.2544 138.517 37.3023 138.866 37.2808C139.39 37.3426 139.921 37.2632 140.403 37.0508C140.886 36.8384 141.301 36.501 141.606 36.0741L145.019 36.1218ZM136.126 32.5969H141.366C141.368 32.2782 141.302 31.9627 141.171 31.6711C141.041 31.3796 140.851 31.1187 140.611 30.9057C140.372 30.6926 140.09 30.5322 139.784 30.4351C139.477 30.338 139.154 30.3064 138.834 30.3423C138.507 30.314 138.177 30.3498 137.864 30.4478C137.551 30.5458 137.26 30.7041 137.009 30.9134C136.757 31.1228 136.55 31.3793 136.398 31.6682C136.247 31.957 136.155 32.2726 136.126 32.5969Z" fill="white"/>
<path id="Vector_13" d="M159.872 36.1217C159.426 37.3282 158.613 38.3676 157.545 39.0959C156.477 39.8241 155.207 40.2052 153.911 40.1864C153.039 40.2651 152.159 40.1568 151.333 39.8689C150.506 39.5809 149.752 39.12 149.121 38.5175C148.49 37.915 147.998 37.185 147.677 36.377C147.356 35.5691 147.215 34.7022 147.262 33.8353C147.238 32.9947 147.387 32.1581 147.7 31.3766C148.014 30.5952 148.485 29.8854 149.085 29.2907C149.685 28.6961 150.401 28.2292 151.19 27.9185C151.978 27.6079 152.823 27.4601 153.671 27.4842C157.709 27.4842 160.176 30.501 159.92 34.788H150.931C150.945 35.1342 151.029 35.4742 151.178 35.788C151.326 36.1017 151.537 36.3829 151.796 36.6151C152.056 36.8473 152.36 37.0257 152.69 37.14C153.02 37.2543 153.37 37.3022 153.719 37.2808C154.241 37.3448 154.77 37.2663 155.251 37.0536C155.731 36.8409 156.143 36.5022 156.443 36.0741L159.872 36.1217ZM150.979 32.5968H156.218C156.218 32.2774 156.15 31.9616 156.018 31.67C155.886 31.3785 155.694 31.1178 155.453 30.905C155.213 30.6922 154.93 30.5321 154.623 30.4351C154.316 30.3381 153.991 30.3065 153.671 30.3422C153.344 30.3139 153.016 30.3499 152.703 30.4481C152.391 30.5463 152.102 30.7048 151.851 30.9143C151.601 31.1239 151.395 31.3805 151.246 31.6692C151.096 31.958 151.005 32.2732 150.979 32.5968Z" fill="white"/>
<path id="Vector_14" d="M170.014 31.422C169.678 31.3928 169.34 31.3928 169.004 31.422C167.194 31.422 166.28 32.0571 166.28 33.9307V39.9642H162.563V27.8813H166.136V30.1676C166.36 29.4728 166.803 28.8677 167.4 28.4416C167.997 28.0156 168.717 27.7913 169.453 27.8019H170.014V31.422Z" fill="white"/>
<path id="Vector_15" d="M175.99 26.6586H172.273V23.7053H175.99V26.6586ZM175.99 39.9006H172.257V27.8811H175.99V39.9006Z" fill="white"/>
<path id="Vector_16" d="M183.072 29.469C183.486 28.8688 184.047 28.3832 184.703 28.0581C185.359 27.733 186.088 27.5792 186.821 27.6113C190.026 27.6113 190.907 29.4214 190.907 32.6763V39.8848H187.19V33.5337C187.19 31.8031 187.19 30.3582 185.315 30.3582C183.44 30.3582 183.072 31.3744 183.072 33.5337V39.6943H179.339V27.8813H183.072V29.469Z" fill="white"/>
<path id="Vector_17" d="M202.315 27.8811H206.016V38.2969C206.016 42.7585 203.148 44.1081 199.783 44.1081C196.419 44.1081 194.079 42.1869 193.727 39.9641H197.172C197.46 41.0279 198.341 41.5518 199.703 41.5518C201.594 41.5518 202.267 40.6309 202.267 39.0431V37.6142C201.852 38.2168 201.292 38.7069 200.637 39.0397C199.982 39.3725 199.253 39.5375 198.518 39.5195C195.313 39.5195 193.182 37.3919 193.182 33.5654C193.182 29.7388 195.441 27.6112 198.566 27.6112C199.3 27.59 200.028 27.7519 200.683 28.082C201.338 28.4121 201.899 28.8999 202.315 29.5007V27.8811ZM197.172 33.5336C197.172 35.6771 198.373 36.6139 199.863 36.6139C201.353 36.6139 202.555 35.8676 202.555 33.5336C202.555 31.1996 201.337 30.4851 199.863 30.4851C198.389 30.4851 197.172 31.4219 197.172 33.5336Z" fill="white"/>
<path id="Vector_18" d="M39.175 37.1379L42.2353 41.4249C44.5109 39.8298 46.4471 37.8062 47.9335 35.4695C49.4199 33.1329 50.4273 30.529 50.8982 27.8066C51.3691 25.0842 51.2942 22.2965 50.678 19.6027C50.0617 16.9089 48.916 14.3618 47.3064 12.1068C45.6968 9.85174 43.6547 7.93297 41.2967 6.46001C38.9388 4.98706 36.3112 3.98876 33.564 3.52212C30.8167 3.05548 28.0036 3.12964 25.2853 3.74035C22.5669 4.35106 19.9966 5.48638 17.721 7.08147L20.7973 11.3843C23.8129 9.26918 27.4779 8.26115 31.1622 8.53353C34.8465 8.80591 38.32 10.3417 40.9855 12.8768C37.1871 14.4308 33.5491 16.3451 30.1224 18.5928C23.0612 23.1066 17.0526 29.0608 12.4977 36.0582C9.36912 31.517 8.16674 25.9393 9.14983 20.5277C10.1329 15.116 13.2227 10.304 17.7531 7.1291L12.6419 -0.0317383C6.13822 4.5288 1.72906 11.4628 0.384417 19.2449C-0.960224 27.027 0.869807 35.0196 5.47191 41.4646C10.074 47.9096 17.0712 52.2789 24.9242 53.6114C32.7772 54.9439 40.8427 53.1304 47.3464 48.5699L42.2353 41.409C38.383 44.1055 33.7321 45.4497 29.021 45.2282C24.3099 45.0067 19.8084 43.2323 16.2309 40.1864C20.4319 33.3232 26.1313 27.48 32.9103 23.0862C36.4568 20.7288 40.2626 18.7792 44.2541 17.2749C45.9113 20.6469 46.3104 24.4914 45.3807 28.127C44.451 31.7627 42.2526 34.9549 39.175 37.1379Z" fill="white"/>
</g>
</g>
<defs>
<clipPath id="clip0_239_148">
<rect width="206" height="54" fill="white"/>
</clipPath>
</defs>
</svg>
