<svg width="20" height="20" viewBox="0 0 20 20" fill="none" xmlns="http://www.w3.org/2000/svg">
<path d="M11.025 0.600012L19.05 5.40001C19.35 5.58335 19.5833 5.83335 19.75 6.15001C19.9167 6.46668 20 6.80001 20 7.15001V18C20 18.55 19.8042 19.0208 19.4125 19.4125C19.0208 19.8042 18.55 20 18 20H2C1.45 20 0.979167 19.8042 0.5875 19.4125C0.195833 19.0208 0 18.55 0 18V7.15001C0 6.80001 0.0833333 6.46668 0.25 6.15001C0.416667 5.83335 0.65 5.58335 0.95 5.40001L8.975 0.600012C9.29167 0.416679 9.63333 0.325012 10 0.325012C10.3667 0.325012 10.7083 0.416679 11.025 0.600012ZM10 11.65L17.8 7.00001L10 2.35001L2.2 7.00001L10 11.65ZM8.975 13.375L2 9.20001V18H18V9.20001L11.025 13.375C10.7083 13.5583 10.3667 13.65 10 13.65C9.63333 13.65 9.29167 13.5583 8.975 13.375Z" fill="white"/>
</svg>
