<svg width="24" height="24" viewBox="0 0 24 24" fill="none" xmlns="http://www.w3.org/2000/svg">
<g id="drafts">
<mask id="mask0_58_926" style="mask-type:alpha" maskUnits="userSpaceOnUse" x="0" y="0" width="24" height="24">
<rect id="Bounding box" width="24" height="24" fill="#D9D9D9"/>
</mask>
<g mask="url(#mask0_58_926)">
<path id="drafts_2" d="M13.025 1.6L21.05 6.4C21.35 6.58333 21.5833 6.83333 21.75 7.15C21.9167 7.46667 22 7.8 22 8.15V19C22 19.55 21.8042 20.0208 21.4125 20.4125C21.0208 20.8042 20.55 21 20 21H4C3.45 21 2.97917 20.8042 2.5875 20.4125C2.19583 20.0208 2 19.55 2 19V8.15C2 7.8 2.08333 7.46667 2.25 7.15C2.41667 6.83333 2.65 6.58333 2.95 6.4L10.975 1.6C11.2917 1.41667 11.6333 1.325 12 1.325C12.3667 1.325 12.7083 1.41667 13.025 1.6ZM12 12.65L19.8 8L12 3.35L4.2 8L12 12.65ZM10.975 14.375L4 10.2V19H20V10.2L13.025 14.375C12.7083 14.5583 12.3667 14.65 12 14.65C11.6333 14.65 11.2917 14.5583 10.975 14.375Z" fill="#1140A6"/>
</g>
</g>
</svg>
