<svg width="24" height="24" viewBox="0 0 24 24" fill="none" xmlns="http://www.w3.org/2000/svg">
<g id="drafts">
<mask id="mask0_58_648" style="mask-type:alpha" maskUnits="userSpaceOnUse" x="0" y="0" width="24" height="24">
<rect id="Bounding box" width="24" height="24" fill="#D9D9D9"/>
</mask>
<g mask="url(#mask0_58_648)">
<path id="drafts_2" d="M13.025 1.59995L21.05 6.39995C21.35 6.58328 21.5833 6.83328 21.75 7.14995C21.9167 7.46662 22 7.79995 22 8.14995V19C22 19.55 21.8042 20.0208 21.4125 20.4125C21.0208 20.8041 20.55 21 20 21H4C3.45 21 2.97917 20.8041 2.5875 20.4125C2.19583 20.0208 2 19.55 2 19V8.14995C2 7.79995 2.08333 7.46662 2.25 7.14995C2.41667 6.83328 2.65 6.58328 2.95 6.39995L10.975 1.59995C11.2917 1.41662 11.6333 1.32495 12 1.32495C12.3667 1.32495 12.7083 1.41662 13.025 1.59995ZM12 12.65L19.8 7.99995L12 3.34995L4.2 7.99995L12 12.65ZM10.975 14.375L4 10.2V19H20V10.2L13.025 14.375C12.7083 14.5583 12.3667 14.65 12 14.65C11.6333 14.65 11.2917 14.5583 10.975 14.375Z" fill="#1140A6"/>
</g>
</g>
</svg>
