<svg width="18" height="18" viewBox="0 0 18 18" fill="none" xmlns="http://www.w3.org/2000/svg">
<g id="instagram" clip-path="url(#clip0_58_637)">
<path id="Vector" d="M9.00299 4.37842C6.45074 4.37842 4.38449 6.44692 4.38449 8.99692C4.38449 11.5492 6.45299 13.6154 9.00299 13.6154C11.5552 13.6154 13.6215 11.5469 13.6215 8.99692C13.6215 6.44467 11.553 4.37842 9.00299 4.37842ZM9.00299 11.9947C7.34624 11.9947 6.00524 10.6529 6.00524 8.99692C6.00524 7.34092 7.34699 5.99917 9.00299 5.99917C10.659 5.99917 12.0007 7.34092 12.0007 8.99692C12.0015 10.6529 10.6597 11.9947 9.00299 11.9947Z" fill="#1140A6"/>
<path id="Vector_2" d="M12.711 0.0570283C11.055 -0.0202217 6.95321 -0.0164717 5.29571 0.0570283C3.83921 0.125278 2.55446 0.477028 1.51871 1.51278C-0.212293 3.24378 0.00895683 5.57628 0.00895683 8.99703C0.00895683 12.498 -0.186043 14.7765 1.51871 16.4813C3.25646 18.2183 5.62271 17.991 9.00296 17.991C12.471 17.991 13.668 17.9933 14.8942 17.5185C16.5615 16.8713 17.82 15.381 17.943 12.7043C18.021 11.0475 18.0165 6.94653 17.943 5.28903C17.7945 2.12928 16.0987 0.213028 12.711 0.0570283ZM15.3322 15.336C14.1975 16.4708 12.6232 16.3695 8.98121 16.3695C5.23121 16.3695 3.72746 16.425 2.63021 15.3248C1.36646 14.067 1.59521 12.0473 1.59521 8.98503C1.59521 4.84128 1.16996 1.85703 5.32871 1.64403C6.28421 1.61028 6.56546 1.59903 8.97071 1.59903L9.00446 1.62153C13.0012 1.62153 16.137 1.20303 16.3252 5.36103C16.368 6.30978 16.3777 6.59478 16.3777 8.99628C16.377 12.7028 16.4475 14.2155 15.3322 15.336Z" fill="#1140A6"/>
<path id="Vector_3" d="M13.8045 5.27545C14.4006 5.27545 14.8837 4.79225 14.8837 4.19619C14.8837 3.60014 14.4006 3.11694 13.8045 3.11694C13.2084 3.11694 12.7253 3.60014 12.7253 4.19619C12.7253 4.79225 13.2084 5.27545 13.8045 5.27545Z" fill="#1140A6"/>
</g>
<defs>
<clipPath id="clip0_58_637">
<rect width="18" height="18" fill="white"/>
</clipPath>
</defs>
</svg>
