<svg width="322" height="341" viewBox="0 0 322 341" fill="none" xmlns="http://www.w3.org/2000/svg">
<path d="M246.427 234.414L265.655 261.451C279.952 251.391 292.117 238.629 301.456 223.893C310.795 209.156 317.125 192.735 320.083 175.565C323.042 158.396 322.572 140.815 318.7 123.826C314.827 106.838 307.629 90.7742 297.516 76.5527C287.403 62.3312 274.573 50.2302 259.758 40.9409C244.943 31.6516 228.434 25.3557 211.173 22.4128C193.913 19.4699 176.238 19.9375 159.159 23.7891C142.08 27.6406 125.93 34.8006 111.633 44.8602L130.961 71.9966C149.908 58.6572 172.935 52.3 196.083 54.0178C219.232 55.7355 241.055 65.4211 257.803 81.4092C233.937 91.2097 211.08 103.282 189.55 117.458C145.185 145.924 107.434 183.475 78.8154 227.605C59.1586 198.966 51.6041 163.789 57.7808 129.66C63.9575 95.531 83.3706 65.1834 111.834 45.1606L79.7215 0C38.859 28.7615 11.1565 72.4916 2.70825 121.57C-5.74005 170.649 5.75792 221.055 34.6727 261.701C63.5874 302.347 107.55 329.903 156.89 338.306C206.23 346.71 256.905 335.273 297.768 306.511L265.655 261.351C241.451 278.356 212.23 286.834 182.63 285.437C153.03 284.04 124.748 272.849 102.271 253.64C128.665 210.357 164.474 173.506 207.066 145.796C229.349 130.929 253.26 118.633 278.339 109.146C288.751 130.412 291.258 154.657 285.417 177.586C279.576 200.515 265.764 220.647 246.427 234.414Z" fill="#F6F7F9"/>
</svg>
