<svg width="654" height="693" viewBox="0 0 654 693" fill="none" xmlns="http://www.w3.org/2000/svg">
<path d="M500.508 476.391L539.56 531.335C568.599 510.891 593.307 484.955 612.275 455.007C631.242 425.06 644.098 391.687 650.107 356.794C656.116 321.902 655.161 286.173 647.297 251.647C639.432 217.122 624.813 184.477 604.272 155.575C583.732 126.673 557.673 102.081 527.583 83.2025C497.493 64.3242 463.963 51.5294 428.905 45.5486C393.847 39.5678 357.949 40.5182 323.261 48.3455C288.572 56.1728 255.772 70.7238 226.733 91.1675L265.99 146.316C304.472 119.207 351.241 106.287 398.256 109.778C445.272 113.269 489.597 132.952 523.612 165.445C475.14 185.362 428.715 209.896 384.987 238.704C294.879 296.556 218.204 372.869 160.079 462.553C120.154 404.349 104.811 332.862 117.356 263.503C129.901 194.144 169.33 132.47 227.142 91.778L161.919 0C78.9249 58.4508 22.6596 147.322 5.5006 247.062C-11.6584 346.802 11.6947 449.241 70.4221 531.844C129.15 614.447 218.441 670.447 318.653 687.525C418.865 704.603 521.789 681.36 604.783 622.91L539.56 531.132C490.4 565.692 431.051 582.92 370.932 580.081C310.813 577.242 253.37 554.5 207.718 515.462C261.327 427.499 334.057 352.609 420.563 296.294C465.82 266.081 514.386 241.093 565.322 221.814C586.469 265.031 591.562 314.304 579.698 360.901C567.835 407.498 539.781 448.411 500.508 476.391Z" fill="black" fill-opacity="0.17"/>
</svg>
