<svg width="439" height="465" viewBox="0 0 439 465" fill="none" xmlns="http://www.w3.org/2000/svg">
<path d="M335.968 319.656L362.182 356.524C381.674 342.806 398.26 325.403 410.992 305.308C423.724 285.213 432.353 262.82 436.387 239.407C440.42 215.995 439.779 192.021 434.5 168.854C429.221 145.688 419.408 123.783 405.62 104.39C391.832 84.9971 374.34 68.4958 354.142 55.8285C333.944 43.1612 311.437 34.576 287.904 30.5629C264.371 26.5498 240.275 27.1876 216.99 32.4396C193.705 37.6917 171.688 47.4553 152.196 61.173L178.547 98.1772C204.378 79.9871 235.772 71.3181 267.331 73.6606C298.89 76.003 328.644 89.2105 351.476 111.013C318.939 124.377 287.777 140.839 258.424 160.169C197.938 198.988 146.47 250.194 107.453 310.371C80.6541 271.317 70.3547 223.349 78.7757 176.809C87.1968 130.269 113.664 88.8865 152.47 61.5826L108.689 0C52.9786 39.2203 15.2103 98.8522 3.6923 165.777C-7.82572 232.703 7.85009 301.439 47.2711 356.865C86.6922 412.291 146.629 449.867 213.897 461.327C281.165 472.786 350.253 457.19 405.963 417.97L362.182 356.387C329.183 379.577 289.345 391.137 248.99 389.232C208.635 387.327 170.075 372.067 139.432 345.873C175.417 286.85 224.237 236.599 282.305 198.812C312.684 178.539 345.283 161.772 379.475 148.836C393.669 177.835 397.088 210.897 389.125 242.163C381.161 273.43 362.33 300.882 335.968 319.656Z" fill="white" fill-opacity="0.07"/>
</svg>
